<svg xmlns="http://www.w3.org/2000/svg" width="139.456" height="160.859" viewBox="0 0 139.456 160.859">
  <path id="Path_1" data-name="Path 1" d="M3737.659,426.613c1.442-.623,2.9-1.214,4.323-1.873q10.087-4.665,20.159-9.361a48.922,48.922,0,0,0,10.542-6.809,93.344,93.344,0,0,1,20.224-12.937c1.753-.814,3.52-1.6,5.461-2.484a2.645,2.645,0,0,0-1.984-.372c-6.081.015-12.163.1-18.243.055-1.975-.016-3.945-.381-6.23-.62a11.426,11.426,0,0,1,.81-.931,66.761,66.761,0,0,0,10.122-11.222c.537-.738,1.132-1.433,1.657-2.178a3.279,3.279,0,0,1,2.348-1.551,2.429,2.429,0,0,0,2.021-1.622c.314-.724.655-1.44,1.037-2.131.72-1.3.964-1.481,2.3-.868,2.423,1.108,4.812,2.306,7.142,3.6,1.537.852,2.927,1.964,4.418,2.9a11.733,11.733,0,0,0,2.426,1.234c3.183,1.081,5.836-.39,6.7-3.623A140.115,140.115,0,0,1,3826,344.43c2.526-4.575,5.309-9.007,7.954-13.517a22.016,22.016,0,0,1,4.718-5.756,8.915,8.915,0,0,0,2.872-4.713,103.6,103.6,0,0,1,11.95-27.694,8.794,8.794,0,0,0,1.333-4.29c.031-.608.036-1.219.117-1.821.28-2.09.668-2.445,2.744-2.6.182-.013.365-.01.547-.027,1.79-.167,1.9-.294,2.123-2.051.232-1.869.463-3.74.755-5.6a8.561,8.561,0,0,1,4.67-6.177c1.481-.85,2-.718,3.158.577a25.142,25.142,0,0,1,4.779,8.541,55.222,55.222,0,0,1,2.846,13.713c.346,3.933.585,7.892.549,11.836-.057,6.232-1.858,12.107-4.31,17.782-1.011,2.342-2.188,4.612-3.259,6.929a212.421,212.421,0,0,1-17.967,30.644c-2.2,3.209-4.2,6.554-6.192,9.894a51.222,51.222,0,0,0-5,11.513c-.141.465-.241.943-.4,1.4-.83,2.414-.58,4.432,1.708,6.05a9.76,9.76,0,0,1,4.154,7.947,5.413,5.413,0,0,1-.931,3.923c-.431-.427-.776-.814-1.167-1.147a5.736,5.736,0,0,0-5.479-1.583,48.318,48.318,0,0,1-7.924,1.164,21.674,21.674,0,0,0-12.8,5.14q-6.243,5.327-12.29,10.881c-6.047,5.581-13,9.779-20.223,13.589a14.375,14.375,0,0,1-6.338,1.47,109.766,109.766,0,0,1-15.479-.609q-10.875-1.167-21.749-2.335c-1.252-.136-2.5-.343-3.746-.518Z" transform="translate(-3737.659 -269.649)" fill="#ce4954"/>
</svg>
