<svg xmlns="http://www.w3.org/2000/svg" width="207" height="322.146" viewBox="0 0 207 322.146">
  <g id="Group_3390" data-name="Group 3390" transform="translate(1541 -0.854)">
    <g id="Group_3389" data-name="Group 3389" transform="translate(-5275.659 -200)">
      <g id="Group_2" data-name="Group 2" transform="translate(3737.659 269.649)">
        <path id="Path_1" data-name="Path 1" d="M3737.659,480.127c1.933-.835,3.885-1.628,5.8-2.512q13.526-6.256,27.032-12.553a65.58,65.58,0,0,0,14.135-9.13,125.188,125.188,0,0,1,27.119-17.348c2.351-1.092,4.719-2.147,7.323-3.331a3.546,3.546,0,0,0-2.66-.5c-8.155.02-16.31.141-24.463.073-2.647-.022-5.291-.511-8.354-.831a15.241,15.241,0,0,1,1.085-1.249,89.559,89.559,0,0,0,13.573-15.048c.719-.99,1.518-1.921,2.221-2.921a4.4,4.4,0,0,1,3.148-2.08,3.255,3.255,0,0,0,2.71-2.175c.421-.971.878-1.931,1.391-2.857.965-1.748,1.292-1.985,3.087-1.164,3.249,1.486,6.453,3.093,9.578,4.826,2.06,1.143,3.923,2.634,5.924,3.893a15.763,15.763,0,0,0,3.253,1.655c4.269,1.45,7.826-.523,8.99-4.858,3.975-14.815,10.173-28.714,17.563-42.094,3.388-6.134,7.119-12.078,10.666-18.125a29.529,29.529,0,0,1,6.327-7.718,11.955,11.955,0,0,0,3.851-6.32,138.926,138.926,0,0,1,16.024-37.136,11.8,11.8,0,0,0,1.787-5.753c.042-.815.048-1.635.157-2.442.375-2.8.9-3.278,3.679-3.483.245-.018.49-.013.733-.036,2.4-.224,2.553-.395,2.846-2.751.312-2.507.622-5.015,1.012-7.51.6-3.862,3.022-6.423,6.263-8.283,1.986-1.14,2.684-.963,4.234.773A33.7,33.7,0,0,1,3920.1,282.6a74.03,74.03,0,0,1,3.817,18.388c.463,5.273.785,10.583.736,15.872-.077,8.356-2.491,16.234-5.779,23.845-1.356,3.14-2.934,6.184-4.37,9.291-6.7,14.482-15.1,27.952-24.092,41.091-2.944,4.3-5.629,8.788-8.3,13.267a68.714,68.714,0,0,0-6.7,15.438c-.189.624-.323,1.265-.534,1.88-1.113,3.238-.778,5.944,2.29,8.112a13.086,13.086,0,0,1,5.57,10.656c.076,1.788.084,3.567-1.248,5.26-.578-.572-1.041-1.091-1.565-1.538-2.122-1.811-4.307-2.871-7.347-2.123a64.808,64.808,0,0,1-10.626,1.561,29.063,29.063,0,0,0-17.166,6.892q-8.372,7.143-16.48,14.59c-8.109,7.484-17.433,13.112-27.118,18.222a19.272,19.272,0,0,1-8.5,1.971,147.179,147.179,0,0,1-20.755-.817q-14.583-1.564-29.164-3.131c-1.68-.182-3.349-.46-5.024-.694Z" transform="translate(-3730.659 -338.444)" fill="#ce4954"/>
        <g id="Group_1" data-name="Group 1" transform="translate(-4.352 170.03)">
          <text id="Enterprise_Solutions" data-name="Enterprise Solutions" transform="translate(1.352 77.321)" fill="#ce4954" font-size="22" font-family="OpenSans-Regular, Open Sans"><tspan x="0" y="0">Enterprise Solutions</tspan></text>
          <text id="DROR" transform="translate(24.352 44.321)" fill="#ce4954" font-size="55" font-family="Nunito-Regular, Nunito" letter-spacing="0.02em"><tspan x="0" y="0">DROR</tspan></text>
        </g>
      </g>
    </g>
  </g>
</svg>
