<svg xmlns="http://www.w3.org/2000/svg" width="457.333" height="277.817" viewBox="0 0 457.333 277.817">
  <g id="Login-Image" transform="translate(-39.234 -57.705)">
    <g id="Floor" transform="translate(39.234 324.804)">
      <g id="Group_3541" data-name="Group 3541">
        <g id="Group_3540" data-name="Group 3540">
          <path id="Path_4955" data-name="Path 4955" d="M496.567,463.827c0,.1-102.386.178-228.656.178-126.313,0-228.677-.08-228.677-.178s102.364-.177,228.677-.177C394.181,463.65,496.567,463.729,496.567,463.827Z" transform="translate(-39.234 -463.65)" fill="#263238"/>
        </g>
      </g>
    </g>
    <g id="Screen" transform="translate(119.255 57.705)">
      <g id="Group_3742" data-name="Group 3742" transform="translate(0 0)">
        <g id="Group_3606" data-name="Group 3606">
          <g id="Group_3601" data-name="Group 3601">
            <g id="Group_3598" data-name="Group 3598" transform="translate(0.177 0.177)">
              <rect id="Rectangle_2546" data-name="Rectangle 2546" width="313.3" height="216.584" fill="#fafafa"/>
            </g>
            <g id="Group_3600" data-name="Group 3600">
              <g id="Group_3599" data-name="Group 3599">
                <path id="Path_4965" data-name="Path 4965" d="M470.211,288.211c0-1.171-.056-84.823-.143-216.584l.143.143L156.937,71.8h-.025l.177-.177c-.005,77.364-.011,150.85-.016,216.584l-.161-.161,313.3.161-313.3.162h-.162v-.162c0-65.734-.01-139.219-.016-216.584V71.45h.2l313.274.034h.143v.143C470.267,203.388,470.212,287.041,470.211,288.211Z" transform="translate(-156.734 -71.45)" fill="#263238"/>
              </g>
            </g>
          </g>
          <g id="Group_3602" data-name="Group 3602" transform="translate(0.177 0.177)">
            <rect id="Rectangle_2547" data-name="Rectangle 2547" width="313.3" height="12.568" fill="#263238"/>
          </g>
          <g id="Group_3603" data-name="Group 3603" transform="translate(5.257 4.293)">
            <path id="Path_4966" data-name="Path 4966" d="M168.313,79.683a1.93,1.93,0,1,1-1.93-1.93A1.93,1.93,0,0,1,168.313,79.683Z" transform="translate(-164.453 -77.753)" fill="#fff"/>
          </g>
          <g id="Group_3604" data-name="Group 3604" transform="translate(12.218 4.293)">
            <path id="Path_4967" data-name="Path 4967" d="M178.534,79.683a1.93,1.93,0,1,1-1.93-1.93A1.93,1.93,0,0,1,178.534,79.683Z" transform="translate(-174.675 -77.753)" fill="#fff"/>
          </g>
          <g id="Group_3605" data-name="Group 3605" transform="translate(19.179 4.293)">
            <path id="Path_4968" data-name="Path 4968" d="M188.755,79.683a1.93,1.93,0,1,1-1.929-1.93A1.93,1.93,0,0,1,188.755,79.683Z" transform="translate(-184.896 -77.753)" fill="#fff"/>
          </g>
        </g>
        <g id="Group_3741" data-name="Group 3741" transform="translate(12.844 28.235)">
          <g id="Group_3608" data-name="Group 3608" transform="translate(0 104.386)">
            <g id="Group_3607" data-name="Group 3607">
              <path id="Path_4969" data-name="Path 4969" d="M465.019,336.713c0-.784-.039-25.856-.1-70.35l.1.1-289.231.073h-.017l.177-.178c0,24.1,0,47.643,0,70.35l-.174-.174,289.248.174-289.248.174H175.6v-.174c0-22.706,0-46.251,0-70.35v-.177h.195l289.231.072h.1v.1C465.057,310.857,465.02,335.93,465.019,336.713Z" transform="translate(-175.594 -266.186)" fill="#e0e0e0"/>
            </g>
          </g>
          <g id="Group_3628" data-name="Group 3628" transform="translate(0.644)">
            <g id="Group_3610" data-name="Group 3610">
              <g id="Group_3609" data-name="Group 3609">
                <path id="Path_4970" data-name="Path 4970" d="M316.565,211.566s-.01-.614-.016-1.792-.009-2.926-.016-5.207c-.009-4.564-.021-11.267-.037-19.84-.018-17.132-.044-41.735-.075-71.642l.143.144-139.838.033h-.012l.177-.177c-.005,35.23-.011,68.672-.016,98.48l-.161-.161,100.856.08,28.727.044,7.628.019,1.966.01c.443,0,.672.01.672.01s-.217.006-.653.01l-1.948.01-7.6.019-28.69.044-100.962.08h-.161v-.161c0-29.809-.01-63.251-.016-98.48v-.177h.189l139.838.034h.144v.143c-.031,29.944-.057,54.578-.075,71.731-.016,8.558-.029,15.25-.037,19.807-.007,2.269-.012,4.006-.016,5.181S316.565,211.566,316.565,211.566Z" transform="translate(-176.539 -112.909)" fill="#e0e0e0"/>
              </g>
            </g>
            <g id="Group_3611" data-name="Group 3611" transform="translate(15.297 36.608)">
              <path id="Path_4971" data-name="Path 4971" d="M199,210.087l10.072-14.569a6.451,6.451,0,0,1,9.058-1.579l1.415,1.012a6.451,6.451,0,0,0,9.857-3.161l4.89-14.308a6.451,6.451,0,0,1,12.208,0l2.366,6.923a6.451,6.451,0,0,0,12,.527l2.053-4.632a6.45,6.45,0,0,1,11.223-1.027h0a6.451,6.451,0,0,0,11.429-1.554l2.288-6.694a6.451,6.451,0,0,1,12.393.653l8.752,38.407S199.308,209.78,199,210.087Z" transform="translate(-199.001 -166.662)" fill="#e8505b"/>
            </g>
            <g id="Group_3612" data-name="Group 3612" transform="translate(15.297 36.608)" opacity="0.3">
              <path id="Path_4972" data-name="Path 4972" d="M199,210.087l10.072-14.569a6.451,6.451,0,0,1,9.058-1.579l1.415,1.012a6.451,6.451,0,0,0,9.857-3.161l4.89-14.308a6.451,6.451,0,0,1,12.208,0l2.366,6.923a6.451,6.451,0,0,0,12,.527l2.053-4.632a6.45,6.45,0,0,1,11.223-1.027h0a6.451,6.451,0,0,0,11.429-1.554l2.288-6.694a6.451,6.451,0,0,1,12.393.653l8.752,38.407S199.308,209.78,199,210.087Z" transform="translate(-199.001 -166.662)"/>
            </g>
            <g id="Group_3616" data-name="Group 3616" transform="translate(15.014 52.205)">
              <g id="Group_3615" data-name="Group 3615">
                <g id="Group_3614" data-name="Group 3614">
                  <g id="Group_3613" data-name="Group 3613">
                    <path id="Path_4973" data-name="Path 4973" d="M198.585,217.77l8.184-23.942a6.3,6.3,0,0,1,11.872-.146l3.92,10.608a6.3,6.3,0,0,0,10.82,1.765l3.176-3.949a6.3,6.3,0,0,1,8.63-1.137l7.4,5.409a6.3,6.3,0,0,0,3.72,1.216h9.411a6.3,6.3,0,0,1,3.72,1.215l7,5.122a6.3,6.3,0,0,0,8.921-1.53l6.573-9.614q.125-.184.261-.355a5.907,5.907,0,0,1,9.84,1.166l7.032,13.947S198.585,217.318,198.585,217.77Z" transform="translate(-198.585 -189.565)" fill="#e8505b"/>
                  </g>
                </g>
              </g>
            </g>
            <g id="Group_3617" data-name="Group 3617" transform="translate(14.712 62.393)">
              <path id="Path_4974" data-name="Path 4974" d="M308.884,222.315l-8.551-6.961c-11.729-8.627-17.29,7.794-26.51-4.527l-3.176-3.949a6.3,6.3,0,0,0-8.629-1.137l-3.676,2.688a20.407,20.407,0,0,1-12.049,3.936h-4.8a6.3,6.3,0,0,0-3.72,1.215l-7,5.122c-2.873,2.1-4.875,2.383-9.472-1.476,0,0-4.99-4.056-5.108-4.2-2.446-2.979-7.558-2.977-9.761,0a25.876,25.876,0,0,1-1.68,2.01l-6.606,7.279S308.884,221.863,308.884,222.315Z" transform="translate(-198.141 -204.525)" fill="#e8505b"/>
            </g>
            <g id="Group_3618" data-name="Group 3618" transform="translate(14.712 62.393)" opacity="0.3">
              <path id="Path_4975" data-name="Path 4975" d="M308.884,222.315l-8.551-6.961c-11.729-8.627-17.29,7.794-26.51-4.527l-3.176-3.949a6.3,6.3,0,0,0-8.629-1.137l-3.676,2.688a20.407,20.407,0,0,1-12.049,3.936h-4.8a6.3,6.3,0,0,0-3.72,1.215l-7,5.122c-2.873,2.1-4.875,2.383-9.472-1.476,0,0-4.99-4.056-5.108-4.2-2.446-2.979-7.558-2.977-9.761,0a25.876,25.876,0,0,1-1.68,2.01l-6.606,7.279S308.884,221.863,308.884,222.315Z" transform="translate(-198.141 -204.525)" fill="#fff"/>
            </g>
            <g id="Group_3620" data-name="Group 3620" transform="translate(27.91 24.721)">
              <g id="Group_3619" data-name="Group 3619">
                <path id="Path_4976" data-name="Path 4976" d="M235,149.387c0,.1-3.913.177-8.739.177s-8.74-.079-8.74-.177,3.913-.178,8.74-.178S235,149.289,235,149.387Z" transform="translate(-217.521 -149.209)" fill="#263238"/>
              </g>
            </g>
            <g id="Group_3621" data-name="Group 3621" transform="translate(23.01 23.403)">
              <rect id="Rectangle_2548" data-name="Rectangle 2548" width="2.991" height="2.991" fill="#e8505b"/>
            </g>
            <g id="Group_3623" data-name="Group 3623" transform="translate(60.883 24.721)">
              <g id="Group_3622" data-name="Group 3622">
                <path id="Path_4977" data-name="Path 4977" d="M283.417,149.387c0,.1-3.913.177-8.739.177s-8.74-.079-8.74-.177,3.913-.178,8.74-.178S283.417,149.289,283.417,149.387Z" transform="translate(-265.938 -149.209)" fill="#263238"/>
              </g>
            </g>
            <g id="Group_3624" data-name="Group 3624" transform="translate(55.984 23.403)">
              <rect id="Rectangle_2549" data-name="Rectangle 2549" width="2.991" height="2.991" fill="#e8505b"/>
            </g>
            <g id="Group_3626" data-name="Group 3626" transform="translate(93.857 24.721)">
              <g id="Group_3625" data-name="Group 3625">
                <path id="Path_4978" data-name="Path 4978" d="M331.834,149.387c0,.1-3.913.177-8.739.177s-8.74-.079-8.74-.177,3.913-.178,8.74-.178S331.834,149.289,331.834,149.387Z" transform="translate(-314.355 -149.209)" fill="#263238"/>
              </g>
            </g>
            <g id="Group_3627" data-name="Group 3627" transform="translate(88.957 23.403)">
              <rect id="Rectangle_2550" data-name="Rectangle 2550" width="2.991" height="2.991" fill="#e8505b"/>
            </g>
          </g>
          <g id="Group_3650" data-name="Group 3650" transform="translate(112.413 114.811)">
            <g id="Group_3649" data-name="Group 3649">
              <g id="Group_3648" data-name="Group 3648">
                <g id="Group_3629" data-name="Group 3629">
                  <path id="Path_4979" data-name="Path 4979" d="M340.658,329.568l7.2-10.264a2.579,2.579,0,0,1,3.665-.577l3.787,2.858a2.58,2.58,0,0,0,3.788-.77L370.019,301.9a2.579,2.579,0,0,1,4.258-.307l6.821,8.648a2.579,2.579,0,0,0,4.2-.213l4.983-7.833a2.579,2.579,0,0,1,4.41.095l4.115,7.127a2.579,2.579,0,0,0,4.408.1l14.07-22.052a2.579,2.579,0,0,1,4.318-.046l23.246,34.772a2.579,2.579,0,0,0,4.053.3l14.123-15.546a2.579,2.579,0,0,1,3.736-.086l11.234,11.274a2.579,2.579,0,0,0,4.06-.531l20.1-34.809a2.579,2.579,0,0,1,4.813,1.29v45.491Z" transform="translate(-340.658 -281.493)" fill="#e8505b"/>
                </g>
                <g id="Group_3631" data-name="Group 3631" transform="translate(0.439 50.233)">
                  <g id="Group_3630" data-name="Group 3630">
                    <path id="Path_4980" data-name="Path 4980" d="M506.746,358.782a1.23,1.23,0,0,1-.012-.2c0-.145-.007-.345-.012-.612-.005-.563-.013-1.4-.023-2.538l.047.046c-9.6.076-43.015.131-82.695.131s-73.1-.055-82.7-.131l.046-.046c-.01,1.141-.018,1.976-.022,2.538-.005.266-.01.466-.012.612a1.3,1.3,0,0,1-.012.2,1.223,1.223,0,0,1-.012-.2c0-.145-.007-.345-.012-.612-.005-.562-.013-1.4-.023-2.538v-.046h.047c9.6-.076,43.01-.131,82.7-.131s73.091.055,82.695.131h.047v.046c-.01,1.141-.018,1.976-.022,2.538-.005.266-.01.466-.012.612A1.3,1.3,0,0,1,506.746,358.782Z" transform="translate(-341.302 -355.254)" fill="#263238"/>
                  </g>
                </g>
                <g id="Group_3633" data-name="Group 3633" transform="translate(18.685 52.086)">
                  <g id="Group_3632" data-name="Group 3632">
                    <path id="Path_4981" data-name="Path 4981" d="M368.273,359.384c-.1,0-.178-.315-.178-.7s.08-.7.178-.7.177.315.177.7S368.37,359.384,368.273,359.384Z" transform="translate(-368.095 -357.974)" fill="#263238"/>
                  </g>
                </g>
                <g id="Group_3635" data-name="Group 3635" transform="translate(37.063 52.086)">
                  <g id="Group_3634" data-name="Group 3634">
                    <path id="Path_4982" data-name="Path 4982" d="M395.257,359.384c-.1,0-.177-.315-.177-.7s.079-.7.177-.7.178.315.178.7S395.355,359.384,395.257,359.384Z" transform="translate(-395.08 -357.974)" fill="#263238"/>
                  </g>
                </g>
                <g id="Group_3637" data-name="Group 3637" transform="translate(55.441 52.086)">
                  <g id="Group_3636" data-name="Group 3636">
                    <path id="Path_4983" data-name="Path 4983" d="M422.242,359.384c-.1,0-.177-.315-.177-.7s.079-.7.177-.7.177.315.177.7S422.34,359.384,422.242,359.384Z" transform="translate(-422.065 -357.974)" fill="#263238"/>
                  </g>
                </g>
                <g id="Group_3639" data-name="Group 3639" transform="translate(73.817 52.086)">
                  <g id="Group_3638" data-name="Group 3638">
                    <path id="Path_4984" data-name="Path 4984" d="M449.227,359.384c-.1,0-.178-.315-.178-.7s.08-.7.178-.7.177.315.177.7S449.325,359.384,449.227,359.384Z" transform="translate(-449.049 -357.974)" fill="#263238"/>
                  </g>
                </g>
                <g id="Group_3641" data-name="Group 3641" transform="translate(92.195 52.086)">
                  <g id="Group_3640" data-name="Group 3640">
                    <path id="Path_4985" data-name="Path 4985" d="M476.212,359.384c-.1,0-.178-.315-.178-.7s.08-.7.178-.7.177.315.177.7S476.309,359.384,476.212,359.384Z" transform="translate(-476.034 -357.974)" fill="#263238"/>
                  </g>
                </g>
                <g id="Group_3643" data-name="Group 3643" transform="translate(110.573 52.086)">
                  <g id="Group_3642" data-name="Group 3642">
                    <path id="Path_4986" data-name="Path 4986" d="M503.2,359.384c-.1,0-.177-.315-.177-.7s.079-.7.177-.7.178.315.178.7S503.294,359.384,503.2,359.384Z" transform="translate(-503.019 -357.974)" fill="#263238"/>
                  </g>
                </g>
                <g id="Group_3645" data-name="Group 3645" transform="translate(128.95 52.086)">
                  <g id="Group_3644" data-name="Group 3644">
                    <path id="Path_4987" data-name="Path 4987" d="M530.181,359.384c-.1,0-.177-.315-.177-.7s.079-.7.177-.7.177.315.177.7S530.279,359.384,530.181,359.384Z" transform="translate(-530.004 -357.974)" fill="#263238"/>
                  </g>
                </g>
                <g id="Group_3647" data-name="Group 3647" transform="translate(147.327 52.086)">
                  <g id="Group_3646" data-name="Group 3646">
                    <path id="Path_4988" data-name="Path 4988" d="M557.166,359.384c-.1,0-.178-.315-.178-.7s.08-.7.178-.7.177.315.177.7S557.264,359.384,557.166,359.384Z" transform="translate(-556.988 -357.974)" fill="#263238"/>
                  </g>
                </g>
              </g>
            </g>
          </g>
          <g id="Group_3677" data-name="Group 3677" transform="translate(150.31 9.063)">
            <g id="Group_3652" data-name="Group 3652">
              <g id="Group_3651" data-name="Group 3651">
                <path id="Path_4989" data-name="Path 4989" d="M536.331,193.25s-.009-.409-.014-1.193-.008-1.952-.014-3.475c-.008-3.052-.018-7.544-.033-13.324-.016-11.551-.04-28.25-.069-48.864l.13.13-139.84.047h-.01l.177-.177c0,23.538-.007,46.155-.01,66.855l-.168-.168,100.446.08,28.981.046,7.738.021,2,.01c.45,0,.685.01.685.01s-.221.007-.665.01l-1.98.01-7.7.021-28.944.046-100.558.08h-.168v-.168c0-20.7-.006-43.318-.01-66.855v-.178h.187l139.84.047h.13v.13c-.029,20.648-.053,37.374-.069,48.943-.014,5.768-.025,10.249-.033,13.3-.006,1.513-.011,2.668-.014,3.451S536.331,193.25,536.331,193.25Z" transform="translate(-396.304 -126.217)" fill="#e0e0e0"/>
              </g>
            </g>
            <g id="Group_3659" data-name="Group 3659" transform="translate(10.433 13.403)">
              <g id="Group_3658" data-name="Group 3658">
                <g id="Group_3656" data-name="Group 3656">
                  <g id="Group_3653" data-name="Group 3653" transform="translate(0 12.716)">
                    <path id="Path_4990" data-name="Path 4990" d="M509.565,167.78H413.228a1.606,1.606,0,0,1,0-3.211h96.336a1.606,1.606,0,1,1,0,3.211Z" transform="translate(-411.623 -164.569)" fill="#e0e0e0"/>
                  </g>
                  <g id="Group_3654" data-name="Group 3654">
                    <path id="Path_4991" data-name="Path 4991" d="M509.565,149.11H413.228a1.606,1.606,0,0,1,0-3.212h96.336a1.606,1.606,0,0,1,0,3.212Z" transform="translate(-411.623 -145.898)" fill="#e0e0e0"/>
                  </g>
                  <g id="Group_3655" data-name="Group 3655" transform="translate(0 12.716)">
                    <path id="Path_4992" data-name="Path 4992" d="M456.758,167.78h-43.53a1.606,1.606,0,0,1,0-3.211h43.53a1.606,1.606,0,1,1,0,3.211Z" transform="translate(-411.623 -164.569)" fill="#455a64"/>
                  </g>
                </g>
                <g id="Group_3657" data-name="Group 3657" transform="translate(106.842 12.148)">
                  <path id="Path_4993" data-name="Path 4993" d="M571.819,166.609h-.712v.921h-.52v-.921h-2.082v-.375l1.916-2.451H571l-1.836,2.365h1.44v-.813h.5v.813h.712Z" transform="translate(-568.506 -163.751)" fill="#263238"/>
                  <path id="Path_4994" data-name="Path 4994" d="M576.369,166.4c0,.648-.46,1.167-1.418,1.167a2.146,2.146,0,0,1-1.375-.455l.246-.424a1.683,1.683,0,0,0,1.124.4c.567,0,.889-.262.889-.669,0-.423-.268-.685-1.135-.685h-.851l.2-1.959h2.114v.466H574.5l-.1,1.027h.417C575.93,165.276,576.369,165.742,576.369,166.4Z" transform="translate(-570.123 -163.751)" fill="#263238"/>
                  <path id="Path_4995" data-name="Path 4995" d="M578.165,164.758a.906.906,0,0,1,.872-1.022c.52,0,.867.407.867,1.022s-.347,1.022-.867,1.022A.907.907,0,0,1,578.165,164.758Zm1.4,0c0-.449-.2-.718-.524-.718s-.524.273-.524.718.2.716.524.716S579.561,165.208,579.561,164.758Zm1.734-.99h.413l-2.559,3.746h-.412Zm-.754,2.756a.881.881,0,1,1,.866,1.022A.9.9,0,0,1,580.541,166.524Zm1.391,0c0-.444-.2-.717-.525-.717s-.524.268-.524.717.2.717.524.717S581.932,166.968,581.932,166.524Z" transform="translate(-571.587 -163.736)" fill="#263238"/>
                </g>
              </g>
            </g>
            <g id="Group_3665" data-name="Group 3665" transform="translate(10.433 37.316)">
              <g id="Group_3664" data-name="Group 3664">
                <g id="Group_3662" data-name="Group 3662" transform="translate(0 0.578)">
                  <g id="Group_3660" data-name="Group 3660">
                    <path id="Path_4996" data-name="Path 4996" d="M509.565,185.069H413.228a1.606,1.606,0,0,1,0-3.211h96.336a1.606,1.606,0,1,1,0,3.211Z" transform="translate(-411.623 -181.858)" fill="#e0e0e0"/>
                  </g>
                  <g id="Group_3661" data-name="Group 3661">
                    <path id="Path_4997" data-name="Path 4997" d="M470.941,185.069H413.328a1.516,1.516,0,0,1-1.7-1.605c0-.887.507-1.606,1.134-1.606h57.614a1.672,1.672,0,0,1,1.844,1.606A1.616,1.616,0,0,1,470.941,185.069Z" transform="translate(-411.623 -181.858)" fill="#455a64"/>
                  </g>
                </g>
                <g id="Group_3663" data-name="Group 3663" transform="translate(106.799)">
                  <path id="Path_4998" data-name="Path 4998" d="M571.269,181.072v.364l-1.514,3.382h-.567l1.482-3.281h-1.712v.669h-.514v-1.135Z" transform="translate(-568.443 -181.03)" fill="#263238"/>
                  <path id="Path_4999" data-name="Path 4999" d="M573.127,182.926c0-1.22.653-1.916,1.531-1.916s1.525.7,1.525,1.916-.653,1.916-1.525,1.916S573.127,184.146,573.127,182.926Zm2.52,0c0-.958-.407-1.44-.99-1.44s-1,.482-1,1.44.406,1.439,1,1.439S575.647,183.883,575.647,182.926Z" transform="translate(-569.937 -181.01)" fill="#263238"/>
                  <path id="Path_5000" data-name="Path 5000" d="M578.283,182.047a.906.906,0,0,1,.872-1.022c.52,0,.868.407.868,1.022s-.348,1.022-.868,1.022A.906.906,0,0,1,578.283,182.047Zm1.4,0c0-.449-.2-.717-.525-.717s-.524.273-.524.717.2.717.524.717S579.68,182.5,579.68,182.047Zm1.733-.99h.413l-2.559,3.746h-.411Zm-.754,2.757a.881.881,0,1,1,.867,1.022A.9.9,0,0,1,580.659,183.814Zm1.391,0c0-.445-.2-.718-.524-.718s-.524.268-.524.718.2.716.524.716S582.05,184.257,582.05,183.814Z" transform="translate(-571.582 -181.015)" fill="#263238"/>
                </g>
              </g>
            </g>
            <g id="Group_3671" data-name="Group 3671" transform="translate(10.433 48.811)">
              <g id="Group_3670" data-name="Group 3670">
                <g id="Group_3668" data-name="Group 3668" transform="translate(0 0.578)">
                  <g id="Group_3666" data-name="Group 3666">
                    <path id="Path_5001" data-name="Path 5001" d="M509.565,201.948H413.228a1.606,1.606,0,0,1,0-3.211h96.336a1.606,1.606,0,1,1,0,3.211Z" transform="translate(-411.623 -198.737)" fill="#e0e0e0"/>
                  </g>
                  <g id="Group_3667" data-name="Group 3667">
                    <path id="Path_5002" data-name="Path 5002" d="M449.011,201.948H413.228a1.606,1.606,0,0,1,0-3.211h35.783a1.606,1.606,0,0,1,0,3.211Z" transform="translate(-411.623 -198.737)" fill="#455a64"/>
                  </g>
                </g>
                <g id="Group_3669" data-name="Group 3669" transform="translate(106.73)">
                  <path id="Path_5003" data-name="Path 5003" d="M571.135,200.574c0,.648-.46,1.167-1.418,1.167a2.145,2.145,0,0,1-1.376-.455l.247-.423a1.681,1.681,0,0,0,1.124.4c.567,0,.889-.262.889-.669,0-.423-.268-.684-1.135-.684h-.851l.2-1.959h2.113v.466h-1.664l-.1,1.028h.417C570.7,199.445,571.135,199.91,571.135,200.574Z" transform="translate(-568.341 -197.909)" fill="#263238"/>
                  <path id="Path_5004" data-name="Path 5004" d="M573.095,199.8c0-1.22.653-1.916,1.531-1.916s1.526.7,1.526,1.916-.653,1.916-1.526,1.916S573.095,201.025,573.095,199.8Zm2.521,0c0-.958-.406-1.44-.99-1.44s-1,.481-1,1.44.407,1.439,1,1.439S575.615,200.762,575.615,199.8Z" transform="translate(-569.857 -197.889)" fill="#263238"/>
                  <path id="Path_5005" data-name="Path 5005" d="M578.252,198.926a.906.906,0,0,1,.872-1.022c.52,0,.867.407.867,1.022s-.347,1.022-.867,1.022A.906.906,0,0,1,578.252,198.926Zm1.4,0c0-.449-.2-.717-.524-.717s-.524.273-.524.717.2.717.524.717S579.648,199.376,579.648,198.926Zm1.734-.99h.413l-2.559,3.746h-.412Zm-.754,2.756a.881.881,0,1,1,.866,1.022A.9.9,0,0,1,580.628,200.692Zm1.391,0c0-.444-.2-.717-.525-.717s-.524.268-.524.717.2.717.524.717S582.019,201.136,582.019,200.692Z" transform="translate(-571.502 -197.894)" fill="#263238"/>
                </g>
              </g>
            </g>
            <g id="Group_3676" data-name="Group 3676" transform="translate(10.433 12.826)">
              <g id="Group_3675" data-name="Group 3675">
                <g id="Group_3673" data-name="Group 3673" transform="translate(0 0.578)">
                  <g id="Group_3672" data-name="Group 3672">
                    <path id="Path_5006" data-name="Path 5006" d="M477.007,149.11H413.228a1.606,1.606,0,0,1,0-3.212h63.778a1.606,1.606,0,0,1,0,3.212Z" transform="translate(-411.623 -145.898)" fill="#e8505b"/>
                  </g>
                </g>
                <g id="Group_3674" data-name="Group 3674" transform="translate(106.896)">
                  <path id="Path_5007" data-name="Path 5007" d="M571.485,147.7a1.212,1.212,0,0,1-1.327,1.183c-1.006,0-1.573-.675-1.573-1.868a1.728,1.728,0,0,1,1.771-1.964,1.8,1.8,0,0,1,.931.219l-.2.417a1.3,1.3,0,0,0-.716-.176c-.76,0-1.247.476-1.247,1.412a1.141,1.141,0,0,0,.005.134,1.245,1.245,0,0,1,1.075-.492A1.157,1.157,0,0,1,571.485,147.7Zm-.519.021c0-.439-.332-.723-.856-.723a.778.778,0,0,0-.862.728c0,.385.311.723.889.723A.742.742,0,0,0,570.967,147.72Z" transform="translate(-568.585 -145.05)" fill="#263238"/>
                  <path id="Path_5008" data-name="Path 5008" d="M573.433,146.966c0-1.22.653-1.916,1.531-1.916s1.525.7,1.525,1.916-.652,1.916-1.525,1.916S573.433,148.186,573.433,146.966Zm2.52,0c0-.958-.406-1.44-.99-1.44s-1,.481-1,1.44.407,1.44,1,1.44S575.953,147.924,575.953,146.966Z" transform="translate(-570.131 -145.05)" fill="#263238"/>
                  <path id="Path_5009" data-name="Path 5009" d="M578.589,146.088a.907.907,0,0,1,.872-1.022c.519,0,.867.407.867,1.022s-.348,1.022-.867,1.022A.907.907,0,0,1,578.589,146.088Zm1.4,0c0-.449-.2-.717-.524-.717s-.524.272-.524.717.2.717.524.717S579.986,146.538,579.986,146.088Zm1.734-.99h.413l-2.559,3.746h-.412Zm-.754,2.756a.881.881,0,1,1,.866,1.022A.9.9,0,0,1,580.966,147.854Zm1.391,0c0-.444-.2-.717-.525-.717s-.524.268-.524.717.2.717.524.717S582.357,148.3,582.357,147.854Z" transform="translate(-571.776 -145.055)" fill="#263238"/>
                </g>
              </g>
            </g>
          </g>
          <g id="Group_3679" data-name="Group 3679" transform="translate(151.114 82.769)">
            <g id="Group_3678" data-name="Group 3678">
              <path id="Path_5010" data-name="Path 5010" d="M502.809,234.621c0,.1-23.579.177-52.66.177s-52.665-.079-52.665-.177,23.575-.177,52.665-.177S502.809,234.523,502.809,234.621Z" transform="translate(-397.484 -234.444)" fill="#e0e0e0"/>
            </g>
          </g>
          <g id="Group_3681" data-name="Group 3681" transform="translate(151.114 89.013)">
            <g id="Group_3680" data-name="Group 3680">
              <path id="Path_5011" data-name="Path 5011" d="M502.809,243.79c0,.1-23.579.178-52.66.178s-52.665-.08-52.665-.178,23.575-.177,52.665-.177S502.809,243.693,502.809,243.79Z" transform="translate(-397.484 -243.613)" fill="#e0e0e0"/>
            </g>
          </g>
          <g id="Group_3683" data-name="Group 3683" transform="translate(151.114 94.662)">
            <g id="Group_3682" data-name="Group 3682">
              <path id="Path_5012" data-name="Path 5012" d="M502.809,252.084c0,.1-23.579.177-52.66.177s-52.665-.079-52.665-.177,23.575-.177,52.665-.177S502.809,251.986,502.809,252.084Z" transform="translate(-397.484 -251.907)" fill="#e0e0e0"/>
            </g>
          </g>
          <g id="Group_3735" data-name="Group 3735" transform="translate(17.169 119.506)">
            <g id="Group_3734" data-name="Group 3734">
              <g id="Group_3688" data-name="Group 3688">
                <g id="Group_3686" data-name="Group 3686" transform="translate(0.367)">
                  <g id="Group_3684" data-name="Group 3684">
                    <path id="Path_5013" data-name="Path 5013" d="M203.236,327.688h0a1.892,1.892,0,0,1-1.893-1.893V290.281a1.892,1.892,0,0,1,1.893-1.893h0a1.893,1.893,0,0,1,1.893,1.893V325.8A1.893,1.893,0,0,1,203.236,327.688Z" transform="translate(-201.343 -288.388)" fill="#e0e0e0"/>
                  </g>
                  <g id="Group_3685" data-name="Group 3685" transform="translate(0 12.786)">
                    <path id="Path_5014" data-name="Path 5014" d="M203.236,333.844h0a1.893,1.893,0,0,1-1.893-1.893V309.056a1.893,1.893,0,0,1,1.893-1.893h0a1.893,1.893,0,0,1,1.893,1.893v22.895A1.893,1.893,0,0,1,203.236,333.844Z" transform="translate(-201.343 -307.163)" fill="#e8505b"/>
                  </g>
                </g>
                <g id="Group_3687" data-name="Group 3687" transform="translate(0 40.922)">
                  <path id="Path_5015" data-name="Path 5015" d="M201.873,348.517v3.157h-.325v-2.868H200.8v-.289Z" transform="translate(-200.804 -348.49)" fill="#263238"/>
                  <path id="Path_5016" data-name="Path 5016" d="M203.478,350.083c0-1.006.528-1.606,1.258-1.606s1.263.6,1.263,1.606-.533,1.606-1.263,1.606S203.478,351.089,203.478,350.083Zm2.187,0c0-.844-.379-1.308-.93-1.308s-.929.464-.929,1.308.379,1.308.929,1.308S205.665,350.927,205.665,350.083Z" transform="translate(-201.657 -348.477)" fill="#263238"/>
                </g>
              </g>
              <g id="Group_3693" data-name="Group 3693" transform="translate(7.067)">
                <g id="Group_3691" data-name="Group 3691" transform="translate(0.867)">
                  <g id="Group_3689" data-name="Group 3689">
                    <path id="Path_5017" data-name="Path 5017" d="M214.347,327.688h0a1.893,1.893,0,0,1-1.893-1.893V290.281a1.893,1.893,0,0,1,1.893-1.893h0a1.892,1.892,0,0,1,1.893,1.893V325.8A1.892,1.892,0,0,1,214.347,327.688Z" transform="translate(-212.454 -288.388)" fill="#e0e0e0"/>
                  </g>
                  <g id="Group_3690" data-name="Group 3690" transform="translate(0 5.576)">
                    <path id="Path_5018" data-name="Path 5018" d="M214.347,330.467h0a1.894,1.894,0,0,1-1.893-1.893V298.468a1.893,1.893,0,0,1,1.893-1.893h0a1.892,1.892,0,0,1,1.893,1.893v30.106A1.893,1.893,0,0,1,214.347,330.467Z" transform="translate(-212.454 -296.575)" fill="#e8505b"/>
                  </g>
                </g>
                <g id="Group_3692" data-name="Group 3692" transform="translate(0 40.922)">
                  <path id="Path_5019" data-name="Path 5019" d="M213.49,351.373v.289h-2.214v-.23l1.312-1.286c.356-.351.424-.563.424-.78,0-.366-.257-.591-.74-.591a1.07,1.07,0,0,0-.861.352l-.23-.2a1.418,1.418,0,0,1,1.118-.452c.64,0,1.046.325,1.046.853a1.3,1.3,0,0,1-.518.987l-1.073,1.056Z" transform="translate(-211.181 -348.477)" fill="#263238"/>
                  <path id="Path_5020" data-name="Path 5020" d="M215.138,350.083c0-1.006.528-1.606,1.258-1.606s1.263.6,1.263,1.606-.533,1.606-1.263,1.606S215.138,351.089,215.138,350.083Zm2.187,0c0-.844-.379-1.308-.93-1.308s-.929.464-.929,1.308.379,1.308.929,1.308S217.325,350.927,217.325,350.083Z" transform="translate(-212.443 -348.477)" fill="#263238"/>
                </g>
              </g>
              <g id="Group_3698" data-name="Group 3698" transform="translate(14.621)">
                <g id="Group_3696" data-name="Group 3696" transform="translate(0.881)">
                  <g id="Group_3694" data-name="Group 3694">
                    <path id="Path_5021" data-name="Path 5021" d="M225.459,327.688h0a1.892,1.892,0,0,1-1.893-1.893V290.281a1.892,1.892,0,0,1,1.893-1.893h0a1.893,1.893,0,0,1,1.893,1.893V325.8A1.893,1.893,0,0,1,225.459,327.688Z" transform="translate(-223.566 -288.388)" fill="#e0e0e0"/>
                  </g>
                  <g id="Group_3695" data-name="Group 3695" transform="translate(0 18.195)">
                    <path id="Path_5022" data-name="Path 5022" d="M225.459,336.378h0a1.893,1.893,0,0,1-1.893-1.893V317a1.892,1.892,0,0,1,1.893-1.893h0A1.893,1.893,0,0,1,227.352,317v17.487A1.894,1.894,0,0,1,225.459,336.378Z" transform="translate(-223.566 -315.105)" fill="#e8505b"/>
                  </g>
                </g>
                <g id="Group_3697" data-name="Group 3697" transform="translate(0 40.922)">
                  <path id="Path_5023" data-name="Path 5023" d="M224.555,350.768c0,.527-.383.934-1.146.934a1.642,1.642,0,0,1-1.136-.407l.157-.257a1.381,1.381,0,0,0,.979.365c.524,0,.812-.243.812-.635s-.266-.627-.852-.627h-.225V349.9l.875-1.1H222.4v-.289h2.03v.23l-.894,1.122C224.217,349.906,224.555,350.262,224.555,350.768Z" transform="translate(-222.273 -348.49)" fill="#263238"/>
                  <path id="Path_5024" data-name="Path 5024" d="M226.289,350.083c0-1.006.528-1.606,1.259-1.606s1.263.6,1.263,1.606-.532,1.606-1.263,1.606S226.289,351.089,226.289,350.083Zm2.187,0c0-.844-.379-1.308-.929-1.308s-.929.464-.929,1.308.379,1.308.929,1.308S228.476,350.927,228.476,350.083Z" transform="translate(-223.554 -348.477)" fill="#263238"/>
                </g>
              </g>
              <g id="Group_3703" data-name="Group 3703" transform="translate(22.24)">
                <g id="Group_3701" data-name="Group 3701" transform="translate(0.828)">
                  <g id="Group_3699" data-name="Group 3699">
                    <path id="Path_5025" data-name="Path 5025" d="M236.57,327.688h0a1.893,1.893,0,0,1-1.893-1.893V290.281a1.893,1.893,0,0,1,1.893-1.893h0a1.892,1.892,0,0,1,1.893,1.893V325.8A1.892,1.892,0,0,1,236.57,327.688Z" transform="translate(-234.677 -288.388)" fill="#e0e0e0"/>
                  </g>
                  <g id="Group_3700" data-name="Group 3700" transform="translate(0 5.576)">
                    <path id="Path_5026" data-name="Path 5026" d="M236.57,330.467h0a1.894,1.894,0,0,1-1.893-1.893V298.468a1.893,1.893,0,0,1,1.893-1.893h0a1.892,1.892,0,0,1,1.893,1.893v30.106A1.893,1.893,0,0,1,236.57,330.467Z" transform="translate(-234.677 -296.575)" fill="#e8505b"/>
                  </g>
                </g>
                <g id="Group_3702" data-name="Group 3702" transform="translate(0 40.922)">
                  <path id="Path_5027" data-name="Path 5027" d="M236.2,350.844h-.631v.83h-.325v-.83h-1.781v-.234l1.673-2.093h.361l-1.615,2.038h1.371v-.73h.316v.73h.631Z" transform="translate(-233.461 -348.49)" fill="#263238"/>
                  <path id="Path_5028" data-name="Path 5028" d="M237.913,350.083c0-1.006.528-1.606,1.259-1.606s1.263.6,1.263,1.606-.532,1.606-1.263,1.606S237.913,351.089,237.913,350.083Zm2.187,0c0-.844-.379-1.308-.929-1.308s-.929.464-.929,1.308.379,1.308.929,1.308S240.1,350.927,240.1,350.083Z" transform="translate(-234.881 -348.477)" fill="#263238"/>
                </g>
              </g>
              <g id="Group_3708" data-name="Group 3708" transform="translate(30.083)">
                <g id="Group_3706" data-name="Group 3706" transform="translate(0.553)">
                  <g id="Group_3704" data-name="Group 3704">
                    <path id="Path_5029" data-name="Path 5029" d="M247.682,327.688h0a1.892,1.892,0,0,1-1.893-1.893V290.281a1.892,1.892,0,0,1,1.893-1.893h0a1.892,1.892,0,0,1,1.893,1.893V325.8A1.892,1.892,0,0,1,247.682,327.688Z" transform="translate(-245.789 -288.388)" fill="#e0e0e0"/>
                  </g>
                  <g id="Group_3705" data-name="Group 3705" transform="translate(0 11.345)">
                    <path id="Path_5030" data-name="Path 5030" d="M247.682,333.169h0a1.893,1.893,0,0,1-1.893-1.893V306.939a1.892,1.892,0,0,1,1.893-1.893h0a1.892,1.892,0,0,1,1.893,1.893v24.337A1.893,1.893,0,0,1,247.682,333.169Z" transform="translate(-245.789 -305.046)" fill="#e8505b"/>
                  </g>
                </g>
                <g id="Group_3707" data-name="Group 3707" transform="translate(0 40.922)">
                  <path id="Path_5031" data-name="Path 5031" d="M247.254,350.745c0,.537-.374.957-1.145.957a1.631,1.631,0,0,1-1.132-.407l.158-.257a1.363,1.363,0,0,0,.969.365c.537,0,.821-.262.821-.645,0-.406-.252-.659-1.055-.659H245.2l.163-1.583h1.727v.289h-1.443l-.108,1.005h.406C246.893,349.811,247.254,350.186,247.254,350.745Z" transform="translate(-244.977 -348.49)" fill="#263238"/>
                  <path id="Path_5032" data-name="Path 5032" d="M248.92,350.083c0-1.006.528-1.606,1.259-1.606s1.263.6,1.263,1.606-.533,1.606-1.263,1.606S248.92,351.089,248.92,350.083Zm2.187,0c0-.844-.379-1.308-.929-1.308s-.929.464-.929,1.308.379,1.308.929,1.308S251.107,350.927,251.107,350.083Z" transform="translate(-246.235 -348.477)" fill="#263238"/>
                </g>
              </g>
              <g id="Group_3713" data-name="Group 3713" transform="translate(37.476)">
                <g id="Group_3711" data-name="Group 3711" transform="translate(0.727)">
                  <g id="Group_3709" data-name="Group 3709">
                    <path id="Path_5033" data-name="Path 5033" d="M258.793,327.688h0A1.892,1.892,0,0,1,256.9,325.8V290.281a1.892,1.892,0,0,1,1.893-1.893h0a1.893,1.893,0,0,1,1.893,1.893V325.8A1.893,1.893,0,0,1,258.793,327.688Z" transform="translate(-256.9 -288.388)" fill="#e0e0e0"/>
                  </g>
                  <g id="Group_3710" data-name="Group 3710" transform="translate(0 18.028)">
                    <path id="Path_5034" data-name="Path 5034" d="M258.793,336.132h0a1.866,1.866,0,0,1-1.893-1.726V316.919a1.936,1.936,0,0,1,1.893-2.06h0a1.894,1.894,0,0,1,1.893,1.893v17.487A1.893,1.893,0,0,1,258.793,336.132Z" transform="translate(-256.9 -314.859)" fill="#e8505b"/>
                  </g>
                </g>
                <g id="Group_3712" data-name="Group 3712" transform="translate(0 40.922)">
                  <path id="Path_5035" data-name="Path 5035" d="M258.2,350.719a.984.984,0,0,1-1.077.97c-.839,0-1.295-.582-1.295-1.579,0-1.073.586-1.632,1.443-1.632a1.446,1.446,0,0,1,.748.172l-.131.262a1.1,1.1,0,0,0-.613-.148c-.681,0-1.119.437-1.119,1.294,0,.072,0,.162.014.257a1.009,1.009,0,0,1,.965-.541A.956.956,0,0,1,258.2,350.719Zm-.32.009c0-.415-.306-.681-.794-.681a.731.731,0,0,0-.812.69c0,.347.289.676.834.676A.691.691,0,0,0,257.884,350.728Z" transform="translate(-255.832 -348.477)" fill="#263238"/>
                  <path id="Path_5036" data-name="Path 5036" d="M259.861,350.083c0-1.006.528-1.606,1.259-1.606s1.263.6,1.263,1.606-.533,1.606-1.263,1.606S259.861,351.089,259.861,350.083Zm2.187,0c0-.844-.379-1.308-.929-1.308s-.929.464-.929,1.308.379,1.308.929,1.308S262.048,350.927,262.048,350.083Z" transform="translate(-257.117 -348.477)" fill="#263238"/>
                </g>
              </g>
              <g id="Group_3718" data-name="Group 3718" transform="translate(44.942)">
                <g id="Group_3716" data-name="Group 3716" transform="translate(0.828)">
                  <g id="Group_3714" data-name="Group 3714">
                    <path id="Path_5037" data-name="Path 5037" d="M269.9,327.688h0a1.893,1.893,0,0,1-1.893-1.893V290.281a1.893,1.893,0,0,1,1.893-1.893h0a1.892,1.892,0,0,1,1.893,1.893V325.8A1.892,1.892,0,0,1,269.9,327.688Z" transform="translate(-268.011 -288.388)" fill="#e0e0e0"/>
                  </g>
                  <g id="Group_3715" data-name="Group 3715" transform="translate(0 3.773)">
                    <path id="Path_5038" data-name="Path 5038" d="M269.9,329.623h0a1.894,1.894,0,0,1-1.893-1.893V295.821a1.893,1.893,0,0,1,1.893-1.893h0a1.892,1.892,0,0,1,1.893,1.893V327.73A1.893,1.893,0,0,1,269.9,329.623Z" transform="translate(-268.011 -293.928)" fill="#e8505b"/>
                  </g>
                </g>
                <g id="Group_3717" data-name="Group 3717" transform="translate(0 40.922)">
                  <path id="Path_5039" data-name="Path 5039" d="M269.113,348.517v.23l-1.321,2.927h-.352l1.3-2.868h-1.624v.59h-.32v-.879Z" transform="translate(-266.795 -348.49)" fill="#263238"/>
                  <path id="Path_5040" data-name="Path 5040" d="M270.692,350.083c0-1.006.528-1.606,1.259-1.606s1.263.6,1.263,1.606-.533,1.606-1.263,1.606S270.692,351.089,270.692,350.083Zm2.187,0c0-.844-.379-1.308-.929-1.308s-.93.464-.93,1.308.379,1.308.93,1.308S272.879,350.927,272.879,350.083Z" transform="translate(-268.038 -348.477)" fill="#263238"/>
                </g>
              </g>
              <g id="Group_3723" data-name="Group 3723" transform="translate(52.409)">
                <g id="Group_3721" data-name="Group 3721" transform="translate(0.928)">
                  <g id="Group_3719" data-name="Group 3719">
                    <path id="Path_5041" data-name="Path 5041" d="M281.016,327.688h0a1.892,1.892,0,0,1-1.893-1.893V290.281a1.892,1.892,0,0,1,1.893-1.893h0a1.893,1.893,0,0,1,1.893,1.893V325.8A1.893,1.893,0,0,1,281.016,327.688Z" transform="translate(-279.123 -288.388)" fill="#e0e0e0"/>
                  </g>
                  <g id="Group_3720" data-name="Group 3720" transform="translate(0 21.8)">
                    <path id="Path_5042" data-name="Path 5042" d="M281.016,338.066h0a1.893,1.893,0,0,1-1.893-1.893V322.292a1.892,1.892,0,0,1,1.893-1.893h0a1.893,1.893,0,0,1,1.893,1.893v13.881A1.894,1.894,0,0,1,281.016,338.066Z" transform="translate(-279.123 -320.399)" fill="#e8505b"/>
                  </g>
                </g>
                <g id="Group_3722" data-name="Group 3722" transform="translate(0 40.922)">
                  <path id="Path_5043" data-name="Path 5043" d="M280.2,350.782c0,.559-.473.906-1.227.906s-1.218-.347-1.218-.906a.788.788,0,0,1,.609-.776.713.713,0,0,1-.5-.695c0-.513.438-.834,1.105-.834s1.114.321,1.114.834a.715.715,0,0,1-.505.695A.8.8,0,0,1,280.2,350.782Zm-.334,0c0-.388-.334-.632-.893-.632s-.889.244-.889.632.33.635.889.635S279.871,351.17,279.871,350.777Zm-.893-.889c.492,0,.785-.221.785-.564s-.311-.573-.785-.573-.78.217-.78.569S278.486,349.889,278.978,349.889Z" transform="translate(-277.76 -348.477)" fill="#263238"/>
                  <path id="Path_5044" data-name="Path 5044" d="M282.008,350.083c0-1.006.528-1.606,1.259-1.606s1.263.6,1.263,1.606-.533,1.606-1.263,1.606S282.008,351.089,282.008,350.083Zm2.187,0c0-.844-.379-1.308-.929-1.308s-.93.464-.93,1.308.379,1.308.93,1.308S284.2,350.927,284.2,350.083Z" transform="translate(-279.115 -348.477)" fill="#263238"/>
                </g>
              </g>
              <g id="Group_3728" data-name="Group 3728" transform="translate(59.855)">
                <g id="Group_3726" data-name="Group 3726" transform="translate(1.049)">
                  <g id="Group_3724" data-name="Group 3724">
                    <path id="Path_5045" data-name="Path 5045" d="M292.127,327.688h0a1.893,1.893,0,0,1-1.893-1.893V290.281a1.893,1.893,0,0,1,1.893-1.893h0a1.892,1.892,0,0,1,1.893,1.893V325.8A1.892,1.892,0,0,1,292.127,327.688Z" transform="translate(-290.234 -288.388)" fill="#e0e0e0"/>
                  </g>
                  <g id="Group_3725" data-name="Group 3725" transform="translate(0 30.647)">
                    <path id="Path_5046" data-name="Path 5046" d="M292.127,342.042h0a1.866,1.866,0,0,1-1.893-1.726v-4.867a1.936,1.936,0,0,1,1.893-2.06h0a1.892,1.892,0,0,1,1.893,1.893v4.868A1.892,1.892,0,0,1,292.127,342.042Z" transform="translate(-290.234 -333.389)" fill="#e8505b"/>
                  </g>
                </g>
                <g id="Group_3727" data-name="Group 3727" transform="translate(0 40.922)">
                  <path id="Path_5047" data-name="Path 5047" d="M291.066,350.056c0,1.073-.586,1.633-1.443,1.633a1.446,1.446,0,0,1-.748-.172l.13-.262a1.114,1.114,0,0,0,.614.148c.681,0,1.118-.437,1.118-1.295,0-.072,0-.162-.013-.257a1.009,1.009,0,0,1-.966.541.956.956,0,0,1-1.064-.947.984.984,0,0,1,1.078-.97C290.61,348.477,291.066,349.059,291.066,350.056Zm-.446-.627c0-.347-.289-.676-.835-.676a.691.691,0,0,0-.771.686c0,.415.306.681.793.681A.731.731,0,0,0,290.62,349.428Z" transform="translate(-288.693 -348.477)" fill="#263238"/>
                  <path id="Path_5048" data-name="Path 5048" d="M292.862,350.083c0-1.006.528-1.606,1.259-1.606s1.263.6,1.263,1.606-.533,1.606-1.263,1.606S292.862,351.089,292.862,350.083Zm2.187,0c0-.844-.379-1.308-.929-1.308s-.929.464-.929,1.308.379,1.308.929,1.308S295.049,350.927,295.049,350.083Z" transform="translate(-290.023 -348.477)" fill="#263238"/>
                </g>
              </g>
              <g id="Group_3733" data-name="Group 3733" transform="translate(66.584)">
                <g id="Group_3731" data-name="Group 3731" transform="translate(1.888)">
                  <g id="Group_3729" data-name="Group 3729">
                    <path id="Path_5049" data-name="Path 5049" d="M303.238,327.688h0a1.893,1.893,0,0,1-1.893-1.893V290.281a1.893,1.893,0,0,1,1.893-1.893h0a1.892,1.892,0,0,1,1.893,1.893V325.8A1.892,1.892,0,0,1,303.238,327.688Z" transform="translate(-301.345 -288.388)" fill="#e0e0e0"/>
                  </g>
                  <g id="Group_3730" data-name="Group 3730" transform="translate(0 18.028)">
                    <path id="Path_5050" data-name="Path 5050" d="M303.238,336.132h0a1.867,1.867,0,0,1-1.893-1.726V316.919a1.937,1.937,0,0,1,1.893-2.06h0a1.893,1.893,0,0,1,1.893,1.893v17.487A1.892,1.892,0,0,1,303.238,336.132Z" transform="translate(-301.345 -314.859)" fill="#e8505b"/>
                  </g>
                </g>
                <g id="Group_3732" data-name="Group 3732" transform="translate(0 40.922)">
                  <path id="Path_5051" data-name="Path 5051" d="M299.642,348.517v3.157h-.325v-2.868h-.744v-.289Z" transform="translate(-298.573 -348.49)" fill="#263238"/>
                  <path id="Path_5052" data-name="Path 5052" d="M301.247,350.083c0-1.006.528-1.606,1.258-1.606s1.263.6,1.263,1.606-.533,1.606-1.263,1.606S301.247,351.089,301.247,350.083Zm2.187,0c0-.844-.379-1.308-.93-1.308s-.929.464-.929,1.308.379,1.308.929,1.308S303.434,350.927,303.434,350.083Z" transform="translate(-299.426 -348.477)" fill="#263238"/>
                  <path id="Path_5053" data-name="Path 5053" d="M305.627,350.083c0-1.006.528-1.606,1.259-1.606s1.263.6,1.263,1.606-.533,1.606-1.263,1.606S305.627,351.089,305.627,350.083Zm2.187,0c0-.844-.379-1.308-.929-1.308s-.93.464-.93,1.308.379,1.308.93,1.308S307.814,350.927,307.814,350.083Z" transform="translate(-300.823 -348.477)" fill="#263238"/>
                </g>
              </g>
            </g>
          </g>
          <g id="Group_3737" data-name="Group 3737" transform="translate(103.036 114.021)">
            <g id="Group_3736" data-name="Group 3736">
              <path id="Path_5054" data-name="Path 5054" d="M327.066,332.542c-.1,0-.177-11.689-.177-26.1s.079-26.106.177-26.106.177,11.686.177,26.106S327.164,332.542,327.066,332.542Z" transform="translate(-326.889 -280.333)" fill="#e0e0e0"/>
            </g>
          </g>
          <g id="Group_3739" data-name="Group 3739" transform="translate(115.062 117.249)">
            <g id="Group_3738" data-name="Group 3738">
              <path id="Path_5055" data-name="Path 5055" d="M376.737,285.25c0,.1-7.207.178-16.094.178s-16.1-.08-16.1-.178,7.2-.177,16.1-.177S376.737,285.153,376.737,285.25Z" transform="translate(-344.547 -285.073)" fill="#263238"/>
            </g>
          </g>
          <g id="Group_3740" data-name="Group 3740" transform="translate(112.413 114.811)" opacity="0.5">
            <path id="Path_5056" data-name="Path 5056" d="M340.658,329.568l7.2-10.264a2.579,2.579,0,0,1,3.665-.577l3.787,2.858a2.58,2.58,0,0,0,3.788-.77L370.019,301.9a2.579,2.579,0,0,1,4.258-.307l6.821,8.648a2.579,2.579,0,0,0,4.2-.213l4.983-7.833a2.579,2.579,0,0,1,4.41.095l4.115,7.127a2.579,2.579,0,0,0,4.408.1l14.07-22.052a2.579,2.579,0,0,1,4.318-.046l23.246,34.772a2.579,2.579,0,0,0,4.053.3l14.123-15.546a2.579,2.579,0,0,1,3.736-.086l11.234,11.274a2.579,2.579,0,0,0,4.06-.531l20.1-34.809a2.579,2.579,0,0,1,4.813,1.29v45.491Z" transform="translate(-340.658 -281.493)" fill="#fff"/>
          </g>
        </g>
      </g>
    </g>
    <g id="Character" transform="translate(255.5 90.445)">
      <g id="Group_4107" data-name="Group 4107">
        <g id="Group_3877" data-name="Group 3877" transform="translate(92.208 215.217)">
          <g id="Group_3876" data-name="Group 3876">
            <g id="Group_3867" data-name="Group 3867">
              <g id="Group_3843" data-name="Group 3843">
                <g id="Group_3842" data-name="Group 3842">
                  <g id="Group_3841" data-name="Group 3841">
                    <path id="Path_5079" data-name="Path 5079" d="M504.165,435.543l.345,12.38s12.7,3.806,12.986,6.088l-23.98,1.531-1.329-19.267Z" transform="translate(-492.187 -435.543)" fill="#ce4954"/>
                  </g>
                </g>
              </g>
              <g id="Group_3847" data-name="Group 3847" transform="translate(4.201 11.759)">
                <g id="Group_3846" data-name="Group 3846">
                  <g id="Group_3845" data-name="Group 3845">
                    <g id="Group_3844" data-name="Group 3844">
                      <path id="Path_5080" data-name="Path 5080" d="M499,452.864a.981.981,0,0,0-.606,1.161.944.944,0,0,0,1.145.61,1.036,1.036,0,0,0,.635-1.233.979.979,0,0,0-1.262-.5" transform="translate(-498.356 -452.809)" fill="#e0e0e0"/>
                    </g>
                  </g>
                </g>
              </g>
              <g id="Group_3850" data-name="Group 3850" transform="translate(1.271 17.312)" opacity="0.6">
                <g id="Group_3849" data-name="Group 3849">
                  <g id="Group_3848" data-name="Group 3848">
                    <path id="Path_5081" data-name="Path 5081" d="M494.112,463.65l-.058-1.947,23.013-.74s1.1.4,1.025,1.156Z" transform="translate(-494.054 -460.963)" fill="#fff"/>
                  </g>
                </g>
              </g>
              <g id="Group_3854" data-name="Group 3854" transform="translate(10.601 12.145)">
                <g id="Group_3853" data-name="Group 3853">
                  <g id="Group_3852" data-name="Group 3852">
                    <g id="Group_3851" data-name="Group 3851">
                      <path id="Path_5082" data-name="Path 5082" d="M509.856,453.464c0,.117-.578.208-1.131.621s-.827.926-.938.886c-.109-.016.02-.727.7-1.216S509.874,453.355,509.856,453.464Z" transform="translate(-507.753 -453.377)" fill="#263238"/>
                    </g>
                  </g>
                </g>
              </g>
              <g id="Group_3858" data-name="Group 3858" transform="translate(13.793 13.072)">
                <g id="Group_3857" data-name="Group 3857">
                  <g id="Group_3856" data-name="Group 3856">
                    <g id="Group_3855" data-name="Group 3855">
                      <path id="Path_5083" data-name="Path 5083" d="M513.933,454.778c.034.112-.46.343-.827.864-.381.51-.448,1.052-.565,1.054-.108.026-.234-.655.234-1.294S513.924,454.666,513.933,454.778Z" transform="translate(-512.441 -454.738)" fill="#263238"/>
                    </g>
                  </g>
                </g>
              </g>
              <g id="Group_3862" data-name="Group 3862" transform="translate(16.734 13.954)">
                <g id="Group_3861" data-name="Group 3861">
                  <g id="Group_3860" data-name="Group 3860">
                    <g id="Group_3859" data-name="Group 3859">
                      <path id="Path_5084" data-name="Path 5084" d="M516.931,458.11c-.1.032-.305-.543-.046-1.2s.791-.951.846-.856c.073.092-.261.458-.466,1S517.046,458.091,516.931,458.11Z" transform="translate(-516.758 -456.033)" fill="#263238"/>
                    </g>
                  </g>
                </g>
              </g>
              <g id="Group_3866" data-name="Group 3866" transform="translate(9.827 9.067)">
                <g id="Group_3865" data-name="Group 3865">
                  <g id="Group_3864" data-name="Group 3864">
                    <g id="Group_3863" data-name="Group 3863">
                      <path id="Path_5085" data-name="Path 5085" d="M509.1,449.21c-.042.11-.59-.017-1.249.07s-1.161.329-1.229.232c-.074-.08.4-.546,1.18-.637S509.154,449.114,509.1,449.21Z" transform="translate(-506.617 -448.857)" fill="#263238"/>
                    </g>
                  </g>
                </g>
              </g>
            </g>
            <g id="Group_3871" data-name="Group 3871" transform="translate(8.46 5.182)">
              <g id="Group_3870" data-name="Group 3870">
                <g id="Group_3869" data-name="Group 3869">
                  <g id="Group_3868" data-name="Group 3868">
                    <path id="Path_5086" data-name="Path 5086" d="M508.346,444.894a2.261,2.261,0,0,1-1.2.071,5.469,5.469,0,0,1-1.281-.306,5.731,5.731,0,0,1-.713-.322,1.476,1.476,0,0,1-.381-.259.511.511,0,0,1-.093-.619.642.642,0,0,1,.5-.3,1.572,1.572,0,0,1,.454.033,4.335,4.335,0,0,1,.763.208,4.266,4.266,0,0,1,1.154.656c.589.479.807.905.768.93-.05.042-.345-.307-.938-.7a4.819,4.819,0,0,0-1.11-.535,4.423,4.423,0,0,0-.7-.169c-.258-.05-.475-.039-.533.079-.02.044-.022.061.035.132a1.177,1.177,0,0,0,.28.189,6.34,6.34,0,0,0,.657.322,6.662,6.662,0,0,0,1.19.371A8.334,8.334,0,0,1,508.346,444.894Z" transform="translate(-504.609 -443.152)" fill="#263238"/>
                  </g>
                </g>
              </g>
            </g>
            <g id="Group_3875" data-name="Group 3875" transform="translate(11.64 3.231)">
              <g id="Group_3874" data-name="Group 3874">
                <g id="Group_3873" data-name="Group 3873">
                  <g id="Group_3872" data-name="Group 3872">
                    <path id="Path_5087" data-name="Path 5087" d="M509.693,444.158a1.919,1.919,0,0,1-.391-1.14,3.888,3.888,0,0,1,.339-2.074.994.994,0,0,1,.727-.655.562.562,0,0,1,.523.3,1.613,1.613,0,0,1,.151.432,2.676,2.676,0,0,1,.052.809,2.774,2.774,0,0,1-.433,1.274c-.429.651-.909.822-.921.783-.043-.057.351-.309.672-.928a2.774,2.774,0,0,0,.308-1.153,2.476,2.476,0,0,0-.067-.693c-.053-.253-.162-.452-.256-.42-.119.005-.31.21-.395.42a4.038,4.038,0,0,0-.256.669,4.334,4.334,0,0,0-.156,1.214C509.6,443.706,509.756,444.135,509.693,444.158Z" transform="translate(-509.278 -440.287)" fill="#263238"/>
                  </g>
                </g>
              </g>
            </g>
          </g>
        </g>
        <g id="Group_3912" data-name="Group 3912" transform="translate(47.112 214.676)">
          <g id="Group_3880" data-name="Group 3880">
            <g id="Group_3879" data-name="Group 3879">
              <g id="Group_3878" data-name="Group 3878">
                <path id="Path_5088" data-name="Path 5088" d="M432.3,434.749l-1.444,15.905-4.77,12.251a1.636,1.636,0,0,0,1.036,2.155h0a1.628,1.628,0,0,0,1.476-.257c2.687-2.047,12.53-9.624,12.571-10.794.047-1.355,2.638-16.676,2.638-16.676Z" transform="translate(-425.969 -434.749)" fill="#ce4954"/>
              </g>
            </g>
          </g>
          <g id="Group_3883" data-name="Group 3883" transform="translate(1.148 18.19)" opacity="0.6">
            <g id="Group_3882" data-name="Group 3882">
              <g id="Group_3881" data-name="Group 3881">
                <path id="Path_5089" data-name="Path 5089" d="M427.655,473.581l14.169-12.122-.076.672a2.464,2.464,0,0,1-.761,1.521c-1.142,1.069-4.362,3.953-11.807,9.678a1.635,1.635,0,0,1-1.524.251Z" transform="translate(-427.655 -461.459)" fill="#fff"/>
              </g>
            </g>
          </g>
          <g id="Group_3887" data-name="Group 3887" transform="translate(12.143 12.594)" opacity="0.6">
            <g id="Group_3886" data-name="Group 3886">
              <g id="Group_3885" data-name="Group 3885">
                <g id="Group_3884" data-name="Group 3884">
                  <path id="Path_5090" data-name="Path 5090" d="M444.3,453.348a.989.989,0,0,0-.415,1.254.952.952,0,0,0,1.239.424,1.044,1.044,0,0,0,.433-1.331.987.987,0,0,0-1.338-.3" transform="translate(-443.799 -453.241)" fill="#fff"/>
                </g>
              </g>
            </g>
          </g>
          <g id="Group_3891" data-name="Group 3891" transform="translate(2.527 21.69)">
            <g id="Group_3890" data-name="Group 3890">
              <g id="Group_3889" data-name="Group 3889">
                <g id="Group_3888" data-name="Group 3888">
                  <path id="Path_5091" data-name="Path 5091" d="M432.718,468.7c-.095.034-.358-.838-1.251-1.393a5.009,5.009,0,0,0-1.787-.558c-.01-.04.206-.141.583-.151a2.609,2.609,0,0,1,2.35,1.508C432.76,468.454,432.759,468.691,432.718,468.7Z" transform="translate(-429.68 -466.598)" fill="#263238"/>
                </g>
              </g>
            </g>
          </g>
          <g id="Group_3895" data-name="Group 3895" transform="translate(1.337 24.411)">
            <g id="Group_3894" data-name="Group 3894">
              <g id="Group_3893" data-name="Group 3893">
                <g id="Group_3892" data-name="Group 3892">
                  <path id="Path_5092" data-name="Path 5092" d="M430.788,471.97c-.084.06-.534-.513-1.328-.842a13.314,13.314,0,0,0-1.527-.376,1.811,1.811,0,0,1,1.664.054C430.5,471.185,430.875,471.937,430.788,471.97Z" transform="translate(-427.932 -470.593)" fill="#263238"/>
                </g>
              </g>
            </g>
          </g>
          <g id="Group_3899" data-name="Group 3899" transform="translate(3.726 18.994)">
            <g id="Group_3898" data-name="Group 3898">
              <g id="Group_3897" data-name="Group 3897">
                <g id="Group_3896" data-name="Group 3896">
                  <path id="Path_5093" data-name="Path 5093" d="M435.694,464.953a8.412,8.412,0,0,0-4.253-2.256,4.476,4.476,0,0,1,4.253,2.256Z" transform="translate(-431.441 -462.639)" fill="#263238"/>
                </g>
              </g>
            </g>
          </g>
          <g id="Group_3903" data-name="Group 3903" transform="translate(4.703 15.557)">
            <g id="Group_3902" data-name="Group 3902">
              <g id="Group_3901" data-name="Group 3901">
                <g id="Group_3900" data-name="Group 3900">
                  <path id="Path_5094" data-name="Path 5094" d="M436.995,458.545c-.053.091-.888-.376-2.024-.547-1.134-.187-2.072,0-2.094-.1a4.06,4.06,0,0,1,4.118.649Z" transform="translate(-432.876 -457.593)" fill="#263238"/>
                </g>
              </g>
            </g>
          </g>
          <g id="Group_3907" data-name="Group 3907" transform="translate(5.107 10.866)">
            <g id="Group_3906" data-name="Group 3906">
              <g id="Group_3905" data-name="Group 3905">
                <g id="Group_3904" data-name="Group 3904">
                  <path id="Path_5095" data-name="Path 5095" d="M437.726,451.689a5.2,5.2,0,0,0-4.256-.336c-.022-.036.174-.215.563-.385a3.568,3.568,0,0,1,3.2.253C437.588,451.45,437.754,451.657,437.726,451.689Z" transform="translate(-433.468 -450.704)" fill="#263238"/>
                </g>
              </g>
            </g>
          </g>
          <g id="Group_3911" data-name="Group 3911" transform="translate(5.109 7.399)">
            <g id="Group_3910" data-name="Group 3910">
              <g id="Group_3909" data-name="Group 3909">
                <g id="Group_3908" data-name="Group 3908">
                  <path id="Path_5096" data-name="Path 5096" d="M435.764,448.557a1.367,1.367,0,0,1,.047-.6,4.206,4.206,0,0,1,.656-1.518,1.859,1.859,0,0,1,.893-.792.658.658,0,0,1,.72.229,1.07,1.07,0,0,1,.17.745,2.313,2.313,0,0,1-2.256,1.9,2.683,2.683,0,0,1-2.46-1.693.931.931,0,0,1,.044-.774.646.646,0,0,1,.71-.263,2.3,2.3,0,0,1,.983.663,4.68,4.68,0,0,1,.943,1.357,1.434,1.434,0,0,1,.181.575,7.458,7.458,0,0,0-1.3-1.754,2.138,2.138,0,0,0-.871-.556.345.345,0,0,0-.388.141.639.639,0,0,0,0,.511,2.4,2.4,0,0,0,2.149,1.443,2.01,2.01,0,0,0,1.939-1.583.779.779,0,0,0-.1-.525.354.354,0,0,0-.395-.132,1.681,1.681,0,0,0-.769.657A6.211,6.211,0,0,0,435.764,448.557Z" transform="translate(-433.471 -445.614)" fill="#263238"/>
                </g>
              </g>
            </g>
          </g>
        </g>
        <g id="Group_3913" data-name="Group 3913" transform="translate(48.871 101.009)">
          <path id="Path_5097" data-name="Path 5097" d="M429.5,267.864l-.947,124.04L446,393.019,449.669,289.4l20.906,103.03,15.855-1.669L469.566,267.844Z" transform="translate(-428.553 -267.844)" fill="#263238"/>
        </g>
        <g id="Group_4033" data-name="Group 4033" transform="translate(59.116)">
          <g id="Group_4030" data-name="Group 4030" transform="translate(0 0.282)">
            <g id="Group_4029" data-name="Group 4029">
              <g id="Group_4028" data-name="Group 4028">
                <g id="Group_4027" data-name="Group 4027">
                  <g id="Group_4026" data-name="Group 4026">
                    <g id="Group_3932" data-name="Group 3932">
                      <g id="Group_3931" data-name="Group 3931">
                        <g id="Group_3930" data-name="Group 3930">
                          <g id="Group_3921" data-name="Group 3921">
                            <g id="Group_3920" data-name="Group 3920">
                              <g id="Group_3919" data-name="Group 3919">
                                <g id="Group_3918" data-name="Group 3918">
                                  <g id="Group_3917" data-name="Group 3917">
                                    <g id="Group_3916" data-name="Group 3916">
                                      <g id="Group_3915" data-name="Group 3915">
                                        <g id="Group_3914" data-name="Group 3914">
                                          <path id="Path_5098" data-name="Path 5098" d="M455.506,119.973a10.571,10.571,0,0,0-11.376,9.9c-.3,4.91-.564,10.22-.531,12.9.071,5.742,5.814,6.635,5.814,6.635s-.14,1.7-.3,3.812a7.565,7.565,0,0,0,7.194,8.124h0a7.562,7.562,0,0,0,7.9-7.216l1.039-23.133a10.574,10.574,0,0,0-9.743-11.016Z" transform="translate(-443.596 -119.94)" fill="#b78876"/>
                                        </g>
                                      </g>
                                    </g>
                                  </g>
                                </g>
                              </g>
                            </g>
                          </g>
                          <g id="Group_3929" data-name="Group 3929" transform="translate(5.794 27.251)">
                            <g id="Group_3928" data-name="Group 3928">
                              <g id="Group_3927" data-name="Group 3927">
                                <g id="Group_3926" data-name="Group 3926">
                                  <g id="Group_3925" data-name="Group 3925">
                                    <g id="Group_3924" data-name="Group 3924">
                                      <g id="Group_3923" data-name="Group 3923">
                                        <g id="Group_3922" data-name="Group 3922">
                                          <path id="Path_5099" data-name="Path 5099" d="M452.117,162.082a13.351,13.351,0,0,0,7.487-2.128s-1.77,4.133-7.5,3.616Z" transform="translate(-452.104 -159.954)" fill="#aa6550"/>
                                        </g>
                                      </g>
                                    </g>
                                  </g>
                                </g>
                              </g>
                            </g>
                          </g>
                        </g>
                      </g>
                    </g>
                    <g id="Group_3950" data-name="Group 3950" transform="translate(20.899 12.841)">
                      <g id="Group_3940" data-name="Group 3940">
                        <g id="Group_3939" data-name="Group 3939">
                          <g id="Group_3938" data-name="Group 3938">
                            <g id="Group_3937" data-name="Group 3937">
                              <g id="Group_3936" data-name="Group 3936">
                                <g id="Group_3935" data-name="Group 3935">
                                  <g id="Group_3934" data-name="Group 3934">
                                    <g id="Group_3933" data-name="Group 3933">
                                      <path id="Path_5100" data-name="Path 5100" d="M474.508,138.976c.1-.042,3.945-1.167,3.82,2.759s-4.041,2.99-4.044,2.877S474.508,138.976,474.508,138.976Z" transform="translate(-474.284 -138.796)" fill="#b78876"/>
                                    </g>
                                  </g>
                                </g>
                              </g>
                            </g>
                          </g>
                        </g>
                      </g>
                      <g id="Group_3949" data-name="Group 3949" transform="translate(1.243 1.285)">
                        <g id="Group_3948" data-name="Group 3948">
                          <g id="Group_3947" data-name="Group 3947">
                            <g id="Group_3946" data-name="Group 3946">
                              <g id="Group_3945" data-name="Group 3945">
                                <g id="Group_3944" data-name="Group 3944">
                                  <g id="Group_3943" data-name="Group 3943">
                                    <g id="Group_3942" data-name="Group 3942">
                                      <g id="Group_3941" data-name="Group 3941">
                                        <path id="Path_5101" data-name="Path 5101" d="M476.113,143.765c.018-.012.067.05.18.107a.684.684,0,0,0,.511.027,1.692,1.692,0,0,0,.832-1.493,2.263,2.263,0,0,0-.16-.985.791.791,0,0,0-.5-.541.349.349,0,0,0-.409.174c-.057.108-.034.188-.055.193s-.082-.068-.045-.23a.437.437,0,0,1,.162-.241.516.516,0,0,1,.381-.088.962.962,0,0,1,.7.632,2.317,2.317,0,0,1,.2,1.1,1.776,1.776,0,0,1-1.052,1.664.733.733,0,0,1-.622-.124C476.116,143.861,476.1,143.772,476.113,143.765Z" transform="translate(-476.109 -140.683)" fill="#aa6550"/>
                                      </g>
                                    </g>
                                  </g>
                                </g>
                              </g>
                            </g>
                          </g>
                        </g>
                      </g>
                    </g>
                    <g id="Group_4025" data-name="Group 4025" transform="translate(1.991 8.021)">
                      <g id="Group_4024" data-name="Group 4024">
                        <g id="Group_4007" data-name="Group 4007" transform="translate(0 3.093)">
                          <g id="Group_4006" data-name="Group 4006">
                            <g id="Group_4005" data-name="Group 4005">
                              <g id="Group_3968" data-name="Group 3968">
                                <g id="Group_3958" data-name="Group 3958" transform="translate(0 1.727)">
                                  <g id="Group_3957" data-name="Group 3957">
                                    <g id="Group_3956" data-name="Group 3956">
                                      <g id="Group_3955" data-name="Group 3955">
                                        <g id="Group_3954" data-name="Group 3954">
                                          <g id="Group_3953" data-name="Group 3953">
                                            <g id="Group_3952" data-name="Group 3952">
                                              <g id="Group_3951" data-name="Group 3951">
                                                <path id="Path_5102" data-name="Path 5102" d="M446.52,139.537a.821.821,0,0,0,.791.827.785.785,0,0,0,.845-.74.821.821,0,0,0-.79-.828A.786.786,0,0,0,446.52,139.537Z" transform="translate(-446.519 -138.795)" fill="#263238"/>
                                              </g>
                                            </g>
                                          </g>
                                        </g>
                                      </g>
                                    </g>
                                  </g>
                                </g>
                                <g id="Group_3967" data-name="Group 3967" transform="translate(0.01)">
                                  <g id="Group_3966" data-name="Group 3966">
                                    <g id="Group_3965" data-name="Group 3965">
                                      <g id="Group_3964" data-name="Group 3964">
                                        <g id="Group_3963" data-name="Group 3963">
                                          <g id="Group_3962" data-name="Group 3962">
                                            <g id="Group_3961" data-name="Group 3961">
                                              <g id="Group_3960" data-name="Group 3960">
                                                <g id="Group_3959" data-name="Group 3959">
                                                  <path id="Path_5103" data-name="Path 5103" d="M446.547,137.122c.1.107.723-.353,1.606-.351s1.529.443,1.625.336c.047-.048-.057-.241-.339-.446a2.246,2.246,0,0,0-1.3-.4,2.159,2.159,0,0,0-1.278.413C446.589,136.88,446.5,137.074,446.547,137.122Z" transform="translate(-446.534 -136.26)" fill="#263238"/>
                                                </g>
                                              </g>
                                            </g>
                                          </g>
                                        </g>
                                      </g>
                                    </g>
                                  </g>
                                </g>
                              </g>
                              <g id="Group_3986" data-name="Group 3986" transform="translate(8.674 0.165)">
                                <g id="Group_3976" data-name="Group 3976" transform="translate(0 1.562)">
                                  <g id="Group_3975" data-name="Group 3975">
                                    <g id="Group_3974" data-name="Group 3974">
                                      <g id="Group_3973" data-name="Group 3973">
                                        <g id="Group_3972" data-name="Group 3972">
                                          <g id="Group_3971" data-name="Group 3971">
                                            <g id="Group_3970" data-name="Group 3970">
                                              <g id="Group_3969" data-name="Group 3969">
                                                <path id="Path_5104" data-name="Path 5104" d="M459.257,139.537a.821.821,0,0,0,.791.827.784.784,0,0,0,.845-.74.82.82,0,0,0-.79-.828A.786.786,0,0,0,459.257,139.537Z" transform="translate(-459.256 -138.795)" fill="#263238"/>
                                              </g>
                                            </g>
                                          </g>
                                        </g>
                                      </g>
                                    </g>
                                  </g>
                                </g>
                                <g id="Group_3985" data-name="Group 3985" transform="translate(0.01)">
                                  <g id="Group_3984" data-name="Group 3984">
                                    <g id="Group_3983" data-name="Group 3983">
                                      <g id="Group_3982" data-name="Group 3982">
                                        <g id="Group_3981" data-name="Group 3981">
                                          <g id="Group_3980" data-name="Group 3980">
                                            <g id="Group_3979" data-name="Group 3979">
                                              <g id="Group_3978" data-name="Group 3978">
                                                <g id="Group_3977" data-name="Group 3977">
                                                  <path id="Path_5105" data-name="Path 5105" d="M459.284,137.363c.1.107.723-.353,1.605-.35s1.529.443,1.625.336c.047-.048-.056-.241-.338-.446a2.244,2.244,0,0,0-1.3-.4,2.159,2.159,0,0,0-1.278.412C459.326,137.122,459.233,137.316,459.284,137.363Z" transform="translate(-459.271 -136.502)" fill="#263238"/>
                                                </g>
                                              </g>
                                            </g>
                                          </g>
                                        </g>
                                      </g>
                                    </g>
                                  </g>
                                </g>
                              </g>
                              <g id="Group_3995" data-name="Group 3995" transform="translate(3.246 0.218)">
                                <g id="Group_3994" data-name="Group 3994">
                                  <g id="Group_3993" data-name="Group 3993">
                                    <g id="Group_3992" data-name="Group 3992">
                                      <g id="Group_3991" data-name="Group 3991">
                                        <g id="Group_3990" data-name="Group 3990">
                                          <g id="Group_3989" data-name="Group 3989">
                                            <g id="Group_3988" data-name="Group 3988">
                                              <g id="Group_3987" data-name="Group 3987">
                                                <path id="Path_5106" data-name="Path 5106" d="M453.534,143.932a5.886,5.886,0,0,0-1.433-.258c-.225-.023-.439-.068-.477-.222a1.144,1.144,0,0,1,.151-.668q.318-.817.666-1.716a29.489,29.489,0,0,0,1.5-4.488,29.549,29.549,0,0,0-1.854,4.357q-.334.9-.638,1.726a1.3,1.3,0,0,0-.117.885.565.565,0,0,0,.37.329,1.528,1.528,0,0,0,.383.054A5.731,5.731,0,0,0,453.534,143.932Z" transform="translate(-451.286 -136.58)" fill="#263238"/>
                                              </g>
                                            </g>
                                          </g>
                                        </g>
                                      </g>
                                    </g>
                                  </g>
                                </g>
                              </g>
                              <g id="Group_4004" data-name="Group 4004" transform="translate(5.279 8.181)">
                                <g id="Group_4003" data-name="Group 4003">
                                  <g id="Group_4002" data-name="Group 4002">
                                    <g id="Group_4001" data-name="Group 4001">
                                      <g id="Group_4000" data-name="Group 4000">
                                        <g id="Group_3999" data-name="Group 3999">
                                          <g id="Group_3998" data-name="Group 3998">
                                            <g id="Group_3997" data-name="Group 3997">
                                              <g id="Group_3996" data-name="Group 3996">
                                                <path id="Path_5107" data-name="Path 5107" d="M457.083,148.273c-.144-.008-.146.949-.966,1.629s-1.839.575-1.847.708c-.013.061.227.187.659.2a2.386,2.386,0,0,0,1.542-.537,2.078,2.078,0,0,0,.748-1.366C457.256,148.5,457.149,148.268,457.083,148.273Z" transform="translate(-454.27 -148.273)" fill="#263238"/>
                                              </g>
                                            </g>
                                          </g>
                                        </g>
                                      </g>
                                    </g>
                                  </g>
                                </g>
                              </g>
                            </g>
                          </g>
                        </g>
                        <g id="Group_4015" data-name="Group 4015" transform="translate(8.464)">
                          <g id="Group_4014" data-name="Group 4014">
                            <g id="Group_4013" data-name="Group 4013">
                              <g id="Group_4012" data-name="Group 4012">
                                <g id="Group_4011" data-name="Group 4011">
                                  <g id="Group_4010" data-name="Group 4010">
                                    <g id="Group_4009" data-name="Group 4009">
                                      <g id="Group_4008" data-name="Group 4008">
                                        <path id="Path_5108" data-name="Path 5108" d="M458.953,132.38c.087.24.968.126,2,.251,1.038.1,1.873.407,2.01.192.061-.1-.084-.329-.422-.561a3.508,3.508,0,0,0-3.058-.337C459.107,132.078,458.915,132.266,458.953,132.38Z" transform="translate(-458.948 -131.718)" fill="#263238"/>
                                      </g>
                                    </g>
                                  </g>
                                </g>
                              </g>
                            </g>
                          </g>
                        </g>
                        <g id="Group_4023" data-name="Group 4023" transform="translate(0.325 0.487)">
                          <g id="Group_4022" data-name="Group 4022">
                            <g id="Group_4021" data-name="Group 4021">
                              <g id="Group_4020" data-name="Group 4020">
                                <g id="Group_4019" data-name="Group 4019">
                                  <g id="Group_4018" data-name="Group 4018">
                                    <g id="Group_4017" data-name="Group 4017">
                                      <g id="Group_4016" data-name="Group 4016">
                                        <path id="Path_5109" data-name="Path 5109" d="M447.019,133.348c.155.2.763-.008,1.494-.018.731-.035,1.35.135,1.492-.075.063-.1-.035-.3-.306-.492a2.164,2.164,0,0,0-2.406.074C447.036,133.043,446.951,133.25,447.019,133.348Z" transform="translate(-446.996 -132.434)" fill="#263238"/>
                                      </g>
                                    </g>
                                  </g>
                                </g>
                              </g>
                            </g>
                          </g>
                        </g>
                      </g>
                    </g>
                  </g>
                </g>
              </g>
            </g>
          </g>
          <g id="Group_4032" data-name="Group 4032" transform="translate(4.645)">
            <g id="Group_4031" data-name="Group 4031">
              <path id="Path_5110" data-name="Path 5110" d="M467.344,132.649a6.674,6.674,0,0,1-.1,1.884,2.055,2.055,0,0,1-1,1.433,2.125,2.125,0,0,1-2.666-1.271,6.608,6.608,0,0,1-.218-3.261,15.881,15.881,0,0,0-.067-4.493,6.448,6.448,0,0,0-2.156-3.853,4.089,4.089,0,0,0-4.229-.61,22.954,22.954,0,0,0-2.235,1.648,3.449,3.449,0,0,1-2.373.6,2.229,2.229,0,0,1-1.818-1.515,2.427,2.427,0,0,1,.926-2.409,5.542,5.542,0,0,1,2.508-1,13.45,13.45,0,0,1,7.45.58,9.718,9.718,0,0,1,5.407,5.029c1.141,2.687.993,4.327.663,7.244" transform="translate(-450.417 -119.526)" fill="#263238"/>
            </g>
          </g>
        </g>
        <g id="Group_4049" data-name="Group 4049" transform="translate(0 43.194)">
          <g id="Group_4034" data-name="Group 4034">
            <path id="Path_5111" data-name="Path 5111" d="M357.5,182.95l8.373,1.687,11.517,7.335-3.927,7.477s-4.049-1.13-5.232-2.175a4.79,4.79,0,0,0-2.491-1.162s.079,1.85-1.323,1.531-3.742-.718-3.344-2.691a1.525,1.525,0,0,1-.985-1.664s-1.156-.086-.843-2,1.7-4.389,5.516-3.693c.2.04.461-.338.115-.469l-5.905-1.392S355.279,184.27,357.5,182.95Z" transform="translate(-356.792 -182.95)" fill="#b78876"/>
          </g>
          <g id="Group_4036" data-name="Group 4036" transform="translate(3.165 8.236)">
            <g id="Group_4035" data-name="Group 4035">
              <path id="Path_5112" data-name="Path 5112" d="M363.119,195.053a5.843,5.843,0,0,1,1.4.341,12.625,12.625,0,0,1,1.5.509,1.279,1.279,0,0,1,.678.777,1.038,1.038,0,0,1-.4,1.05,2.486,2.486,0,0,1-1.974.259,12.575,12.575,0,0,1-1.543-.317,3.936,3.936,0,0,1-1.344-.543,11.712,11.712,0,0,1,1.4.3c.431.088.948.17,1.528.237a5.485,5.485,0,0,0,.887.063,1.476,1.476,0,0,0,.821-.273.7.7,0,0,0,.287-.69.968.968,0,0,0-.5-.574c-.483-.242-1.024-.392-1.427-.559A5.868,5.868,0,0,1,363.119,195.053Z" transform="translate(-361.439 -195.044)" fill="#aa6550"/>
            </g>
          </g>
          <g id="Group_4038" data-name="Group 4038" transform="translate(5.037 7.049)">
            <g id="Group_4037" data-name="Group 4037">
              <path id="Path_5113" data-name="Path 5113" d="M366.04,193.415c-.01.1-.511.113-1,.431s-.726.75-.821.716c-.1-.01.019-.633.633-1.015S366.072,193.323,366.04,193.415Z" transform="translate(-364.188 -193.3)" fill="#aa6550"/>
            </g>
          </g>
          <g id="Group_4040" data-name="Group 4040" transform="translate(4.286 10.83)">
            <g id="Group_4039" data-name="Group 4039">
              <path id="Path_5114" data-name="Path 5114" d="M366.572,198.856c.016-.015.089.01.193.113.128.106.152.36.181.569a1.118,1.118,0,0,1-.24.895,1.153,1.153,0,0,1-1.087.317,12.115,12.115,0,0,1-1.834-.369c-.462-.151-.718-.315-.7-.357s.3.031.761.114,1.107.153,1.817.261a.868.868,0,0,0,.8-.185.92.92,0,0,0,.234-.653c0-.259.02-.41-.044-.513S366.553,198.874,366.572,198.856Z" transform="translate(-363.085 -198.852)" fill="#aa6550"/>
            </g>
          </g>
          <g id="Group_4042" data-name="Group 4042" transform="translate(7.709 12.299)">
            <g id="Group_4041" data-name="Group 4041">
              <path id="Path_5115" data-name="Path 5115" d="M368.111,201.084c-.007-.043.153-.116.408-.044a1.5,1.5,0,0,1,.75.6,1.09,1.09,0,0,1,.089.985c-.083.229-.183.343-.227.327s-.033-.163-.018-.379a1.148,1.148,0,0,0-.133-.729,2.124,2.124,0,0,0-.56-.573C368.251,201.162,368.114,201.137,368.111,201.084Z" transform="translate(-368.111 -201.01)" fill="#aa6550"/>
            </g>
          </g>
          <g id="Group_4046" data-name="Group 4046" transform="translate(5.661 7.73)">
            <g id="Group_4043" data-name="Group 4043" transform="translate(0.174 0.144)">
              <path id="Path_5116" data-name="Path 5116" d="M373.671,194.68l-4.043-.167-4.244.827s-.349.771,1.616,1.3a9.466,9.466,0,0,0,3.782.179s1.751,2.553,4.027,3.141" transform="translate(-365.36 -194.513)" fill="#b78876"/>
            </g>
            <g id="Group_4045" data-name="Group 4045">
              <g id="Group_4044" data-name="Group 4044">
                <path id="Path_5117" data-name="Path 5117" d="M374.727,199.89a1.112,1.112,0,0,1-.375-.067,4.791,4.791,0,0,1-.985-.422,9.228,9.228,0,0,1-2.8-2.564l.158.065a8.867,8.867,0,0,1-4.651-.437,2.248,2.248,0,0,1-.67-.424.8.8,0,0,1-.266-.841l.027-.081.1-.019,4.25-.8.018,0h.016c1.229.067,2.239.129,2.941.183a5.57,5.57,0,0,1,1.1.127,5.453,5.453,0,0,1-1.1.036c-.7,0-1.716-.025-2.946-.06l.033,0-4.237.859.126-.1a.5.5,0,0,0,.191.443,1.945,1.945,0,0,0,.569.354,8.892,8.892,0,0,0,4.448.454l.1-.014.057.079a9.871,9.871,0,0,0,2.632,2.582A13.4,13.4,0,0,0,374.727,199.89Z" transform="translate(-365.105 -194.301)" fill="#aa6550"/>
              </g>
            </g>
          </g>
          <g id="Group_4048" data-name="Group 4048" transform="translate(8.195 4.298)">
            <g id="Group_4047" data-name="Group 4047">
              <path id="Path_5118" data-name="Path 5118" d="M369.844,190.638c-.052.08-.441-.1-.734-.512s-.333-.84-.24-.863.272.3.53.658S369.9,190.556,369.844,190.638Z" transform="translate(-368.824 -189.261)" fill="#aa6550"/>
            </g>
          </g>
        </g>
        <g id="Group_4091" data-name="Group 4091" transform="translate(16.158 31.193)">
          <g id="Group_4050" data-name="Group 4050" transform="translate(37.423 1.574)">
            <path id="Path_5119" data-name="Path 5119" d="M435.469,236.86c6.952,3,15.087,3.9,24.268,2.922l6.724-68.483-4.768-3.661L450.707,175.8l-3.764-7.869-8.82,12.671Z" transform="translate(-435.469 -167.639)" fill="#f5f5f5"/>
          </g>
          <g id="Group_4052" data-name="Group 4052" transform="translate(48.307 9.739)">
            <g id="Group_4051" data-name="Group 4051">
              <path id="Path_5120" data-name="Path 5120" d="M452.108,243.983a.593.593,0,0,1-.038-.162c-.02-.13-.045-.289-.076-.484l-.259-1.867c-.069-.814-.12-1.814-.193-2.974s-.057-2.483-.089-3.945c-.041-5.849.35-13.918,1-22.81s1.458-16.93,2.106-22.738c.322-2.9.617-5.25.84-6.869.106-.81.209-1.436.279-1.861.034-.194.062-.353.084-.482a.578.578,0,0,1,.041-.162.6.6,0,0,1,0,.168c-.014.131-.03.291-.05.487q-.078.684-.212,1.868c-.175,1.655-.423,4-.728,6.879-.584,5.811-1.35,13.846-2,22.736s-1.081,16.946-1.1,22.785c.016,1.458,0,2.78.036,3.938s.1,2.145.133,2.969q.123,1.183.193,1.868l.042.488A.588.588,0,0,1,452.108,243.983Z" transform="translate(-451.45 -179.629)" fill="#263238"/>
            </g>
          </g>
          <g id="Group_4053" data-name="Group 4053" transform="translate(55.23 1.574)">
            <path id="Path_5121" data-name="Path 5121" d="M464.6,250.247s-5.121-53.534-1.944-59.514c2.46-4.63,6.263-14.3,7.856-18.431a4.973,4.973,0,0,0-.1-3.816l-.379-.847L474.8,171.3l9.788,5.261-5.908,45.353,6.691,23.01Z" transform="translate(-461.616 -167.639)" fill="#ce4954"/>
          </g>
          <g id="Group_4055" data-name="Group 4055" transform="translate(56.391 61.021)" opacity="0.3">
            <g id="Group_4054" data-name="Group 4054">
              <path id="Path_5122" data-name="Path 5122" d="M463.823,262.591c4.162-.87,2.365,1.548,6.573.935,2.273-.331,2.388-1.66,4.26-2.993a12.938,12.938,0,0,1,7.005-2.4l-.932-3.206-17.409.648Z" transform="translate(-463.32 -254.929)"/>
            </g>
          </g>
          <g id="Group_4056" data-name="Group 4056" transform="translate(31.175 2.363)">
            <path id="Path_5123" data-name="Path 5123" d="M428.03,179.517l1.7,42.766L426.3,246.221l8.574,3.168,3.749-66.143a17.8,17.8,0,0,1,1.617-7.118l3.359-7.33-11.376,3.874Z" transform="translate(-426.295 -168.798)" fill="#ce4954"/>
          </g>
          <g id="Group_4058" data-name="Group 4058" transform="translate(59.692 10.495)">
            <g id="Group_4057" data-name="Group 4057">
              <path id="Path_5124" data-name="Path 5124" d="M486.679,180.739s5.371,4.647,6.579,10.889c.882,4.555,3.473,20.536,4.194,28.742a9.685,9.685,0,0,1-8.2,10.448l-.232.033c-7.787,1.062-20.857-.407-20.857-.407l2.279-9.945s11.561-1.67,13.638-3.066l-2.757-18.447S483.591,181.27,486.679,180.739Z" transform="translate(-468.167 -180.739)" fill="#ce4954"/>
            </g>
          </g>
          <g id="Group_4059" data-name="Group 4059" transform="translate(0 5.045)">
            <path id="Path_5125" data-name="Path 5125" d="M385.716,187.28l18.931,11.993s6.818-20.032,11.2-24.742l5.274-1.795-4.809,38.439a7.812,7.812,0,0,1-3.477,5.286h0a7.814,7.814,0,0,1-9.152-.5l-23.163-18.785Z" transform="translate(-380.518 -172.736)" fill="#ce4954"/>
          </g>
          <g id="Group_4061" data-name="Group 4061" transform="translate(75.48 47.142)">
            <g id="Group_4060" data-name="Group 4060">
              <path id="Path_5126" data-name="Path 5126" d="M494.936,240.833a8.027,8.027,0,0,1-.115-1.116,6.8,6.8,0,0,0-2.567-4.5c-.539-.419-.927-.612-.9-.666a2.375,2.375,0,0,1,1.047.462,6,6,0,0,1,2.672,4.678A2.381,2.381,0,0,1,494.936,240.833Z" transform="translate(-491.35 -234.55)" fill="#263238"/>
            </g>
          </g>
          <g id="Group_4063" data-name="Group 4063" transform="translate(75.492 46.984)">
            <g id="Group_4062" data-name="Group 4062">
              <path id="Path_5127" data-name="Path 5127" d="M492.911,242.074a11.031,11.031,0,0,0-1.538-7.754,2.93,2.93,0,0,1,.768.938,8.3,8.3,0,0,1,1.122,5.657A2.927,2.927,0,0,1,492.911,242.074Z" transform="translate(-491.367 -234.318)" fill="#263238"/>
            </g>
          </g>
          <g id="Group_4065" data-name="Group 4065" transform="translate(71.811 12.367)">
            <g id="Group_4064" data-name="Group 4064">
              <path id="Path_5128" data-name="Path 5128" d="M491.035,183.488a15.029,15.029,0,0,0-2.066,2.055A13.2,13.2,0,0,0,486.443,192a27.224,27.224,0,0,0,.25,7.034c.127.84.234,1.55.321,2.127a3.445,3.445,0,0,1,.082.788,3.331,3.331,0,0,1-.218-.762c-.116-.5-.272-1.216-.433-2.113a24.39,24.39,0,0,1-.355-7.117,12.741,12.741,0,0,1,2.683-6.571,8.525,8.525,0,0,1,1.579-1.49A2.8,2.8,0,0,1,491.035,183.488Z" transform="translate(-485.963 -183.487)" fill="#263238"/>
            </g>
          </g>
          <g id="Group_4067" data-name="Group 4067" transform="translate(75.754 47.031)" opacity="0.3">
            <g id="Group_4066" data-name="Group 4066">
              <path id="Path_5129" data-name="Path 5129" d="M491.752,234.387a6.281,6.281,0,0,1,1.382,3.817,11.752,11.752,0,0,1-.659,4.06.888.888,0,0,0-.018.741.594.594,0,0,0,.861.029,1.715,1.715,0,0,0,.427-.866c-.163.183.074.5.319.481a.807.807,0,0,0,.565-.431,4.461,4.461,0,0,0,.161-4.052,11.529,11.529,0,0,0-2.452-3.4" transform="translate(-491.752 -234.387)"/>
            </g>
          </g>
          <g id="Group_4069" data-name="Group 4069" transform="translate(24.127 31.531)">
            <g id="Group_4068" data-name="Group 4068">
              <path id="Path_5130" data-name="Path 5130" d="M419.809,219.176a20.74,20.74,0,0,1-3.855-7.548c.1-.035.787,1.734,1.854,3.812S419.9,219.117,419.809,219.176Z" transform="translate(-415.946 -211.627)" fill="#263238"/>
            </g>
          </g>
          <g id="Group_4071" data-name="Group 4071" transform="translate(23.627 31.416)">
            <g id="Group_4070" data-name="Group 4070">
              <path id="Path_5131" data-name="Path 5131" d="M416.92,220.565a4.79,4.79,0,0,1-.475-1.281,32.994,32.994,0,0,1-1.187-6.461,4.79,4.79,0,0,1-.012-1.365c.1-.009.328,2.052.793,4.562S417.02,220.535,416.92,220.565Z" transform="translate(-415.211 -211.458)" fill="#263238"/>
            </g>
          </g>
          <g id="Group_4073" data-name="Group 4073" transform="translate(34.429 18.462)">
            <g id="Group_4072" data-name="Group 4072">
              <path id="Path_5132" data-name="Path 5132" d="M431.25,192.438c.1,0,.177,8.37.177,18.692s-.079,18.694-.177,18.694-.177-8.368-.177-18.694S431.152,192.438,431.25,192.438Z" transform="translate(-431.073 -192.438)" fill="#263238"/>
            </g>
          </g>
          <g id="Group_4075" data-name="Group 4075" transform="translate(39.02 3.159)">
            <g id="Group_4074" data-name="Group 4074">
              <path id="Path_5133" data-name="Path 5133" d="M444.928,169.968a1.777,1.777,0,0,1-.227.331l-.678.926a41.51,41.51,0,0,0-2.289,3.557,21.73,21.73,0,0,0-2.427,5.772c-.21,1.142-.347,2.417-.539,3.708-.565,1.361.776,2.248,1.869,2.987l.274.185-.305.129a5.617,5.617,0,0,0-1.107.709c-.489.379-.958.783-1.382,1.172l.056-.143c.213,2.706.679,5.262.985,7.578.324,2.305.616,4.375.862,6.124.228,1.7.413,3.091.548,4.1.054.454.1.821.132,1.111a1.694,1.694,0,0,1,.022.389,1.771,1.771,0,0,1-.09-.379c-.05-.287-.115-.652-.194-1.1-.161-1-.383-2.386-.657-4.083l-.939-6.113c-.326-2.318-.8-4.852-1.024-7.6l-.007-.086.063-.057c.434-.4.905-.806,1.407-1.195a5.829,5.829,0,0,1,1.2-.757l-.031.314a7.522,7.522,0,0,1-1.631-1.331,1.937,1.937,0,0,1-.493-.975,1.147,1.147,0,0,1,0-.294l.035-.245.069-.486c.2-1.293.335-2.523.566-3.729a16.391,16.391,0,0,1,1.143-3.219,27.687,27.687,0,0,1,1.387-2.608,34.369,34.369,0,0,1,2.392-3.514c.309-.394.555-.694.731-.889A1.807,1.807,0,0,1,444.928,169.968Z" transform="translate(-437.813 -169.967)" fill="#263238"/>
            </g>
          </g>
          <g id="Group_4077" data-name="Group 4077" transform="translate(58.232 4.415)">
            <g id="Group_4076" data-name="Group 4076">
              <path id="Path_5134" data-name="Path 5134" d="M474.913,171.811a.936.936,0,0,1,.094.285,6.99,6.99,0,0,1,.168.844,12.181,12.181,0,0,1-.01,3.161,29.769,29.769,0,0,1-1.022,4.57,37.245,37.245,0,0,1-1.943,5.39c-.742,1.673-1.534,3.234-2.259,4.665l-.037.072-.078.016-1.643.33.087-.255,1.06,1.259.069.081-.054.087-2.379,3.819-.678,1.047a1.692,1.692,0,0,1-.264.353,1.724,1.724,0,0,1,.19-.4l.611-1.088,2.273-3.883.014.168-1.079-1.242-.174-.2.262-.055,1.639-.349-.115.088c.712-1.438,1.494-3,2.231-4.659a39.475,39.475,0,0,0,1.955-5.339,32.288,32.288,0,0,0,1.087-4.51,13.624,13.624,0,0,0,.121-3.113C474.975,172.22,474.879,171.818,474.913,171.811Z" transform="translate(-466.024 -171.811)" fill="#263238"/>
            </g>
          </g>
          <g id="Group_4079" data-name="Group 4079" transform="translate(22.863 31.038)" opacity="0.3">
            <g id="Group_4078" data-name="Group 4078">
              <path id="Path_5135" data-name="Path 5135" d="M418.4,218.632c-.846-2.414-2.01-4.846-3.046-7.185l-.859-.544a10.329,10.329,0,0,0,.323,6.618.694.694,0,0,0,.355.47.49.49,0,0,0,.575-.411,1.419,1.419,0,0,0-.144-.777,20.518,20.518,0,0,0,1.91,2.825.808.808,0,0,0,.409.322.563.563,0,0,0,.609-.477A1.622,1.622,0,0,0,418.4,218.632Z" transform="translate(-414.089 -210.903)"/>
            </g>
          </g>
          <g id="Group_4081" data-name="Group 4081" transform="translate(37.423 18.737)" opacity="0.3">
            <g id="Group_4080" data-name="Group 4080">
              <path id="Path_5136" data-name="Path 5136" d="M439.528,214.911a70.973,70.973,0,0,1-3.923-14.143,8.307,8.307,0,0,1,.044-3.224,3.332,3.332,0,0,1,2.018-2.371,1.8,1.8,0,0,1-.028-2.333l1.992,2.117a2.477,2.477,0,0,0-2.2,1.869,7.268,7.268,0,0,0-.029,3.073q1.019,7.59,2.038,15.181" transform="translate(-435.469 -192.841)"/>
            </g>
          </g>
          <g id="Group_4083" data-name="Group 4083" transform="translate(58.233 14.207)" opacity="0.3">
            <g id="Group_4082" data-name="Group 4082">
              <path id="Path_5137" data-name="Path 5137" d="M471.009,196.575q1.484-5.194,2.968-10.386-1.247,2.978-2.5,5.956a8.216,8.216,0,0,1-1.306,2.354,2.785,2.785,0,0,1-2.385,1.025l1.55,1.056c-1.112,1.788-2.2,3.752-3.315,5.54l2.389.2,2.62-4.162-.8-1.435Z" transform="translate(-466.026 -186.189)"/>
            </g>
          </g>
          <g id="Group_4084" data-name="Group 4084" transform="translate(47.603)">
            <path id="Path_5138" data-name="Path 5138" d="M451.29,167.691l.127-1.662,3.077,4.344.982,4.694,2.516-4.694,8.68-5.045v4.415l-1.659,4.289-3.234,2.5-3.7,1.623-4.4-.823-2.661-1.506-.592-3.114Z" transform="translate(-450.417 -165.328)" fill="#f5f5f5"/>
          </g>
          <g id="Group_4086" data-name="Group 4086" transform="translate(47.512 4.676)">
            <g id="Group_4085" data-name="Group 4085">
              <path id="Path_5139" data-name="Path 5139" d="M454.234,172.5c.048.02-.181.6-.45,1.582a12.789,12.789,0,0,0-.513,3.921l.031.671-.355-.563-.217-.343a30.728,30.728,0,0,1-1.714-3.957c-.415-1.01-.776-1.584-.73-1.615a4.95,4.95,0,0,1,.959,1.512c.5.987.953,2.458,1.788,3.878l.208.33-.324.108a11.141,11.141,0,0,1,.634-4.012A5.269,5.269,0,0,1,454.234,172.5Z" transform="translate(-450.283 -172.195)" fill="#263238"/>
            </g>
          </g>
          <g id="Group_4088" data-name="Group 4088" transform="translate(55.166 2.871)">
            <g id="Group_4087" data-name="Group 4087">
              <path id="Path_5140" data-name="Path 5140" d="M470.213,169.544c.012,0,.02.061.023.178a2.125,2.125,0,0,1-.053.513,3.99,3.99,0,0,1-.921,1.644,10.937,10.937,0,0,1-2.125,1.8,29.069,29.069,0,0,0-2.705,1.988,26.445,26.445,0,0,1-2.45,1.8l-.317.2.067-.368a10.108,10.108,0,0,0,.074-2.227c-.036-.679-.094-1.277-.143-1.772a10.955,10.955,0,0,1-.13-1.579,7.516,7.516,0,0,1,.333,1.553c.078.494.161,1.094.22,1.78a9.639,9.639,0,0,1-.028,2.309l-.251-.173a29.976,29.976,0,0,0,2.4-1.8,25.7,25.7,0,0,1,2.745-1.982,11.7,11.7,0,0,0,2.119-1.694,4.258,4.258,0,0,0,.975-1.513C470.179,169.789,470.177,169.543,470.213,169.544Z" transform="translate(-461.522 -169.544)" fill="#263238"/>
            </g>
          </g>
          <g id="Group_4090" data-name="Group 4090" transform="translate(59.478 39.377)">
            <g id="Group_4089" data-name="Group 4089">
              <path id="Path_5141" data-name="Path 5141" d="M482.728,244.76a1.077,1.077,0,0,1-.278.037l-.807.051c-.7.036-1.737.072-3.039.1s-2.875.031-4.663.012c-.893-.01-1.841-.028-2.837-.06l-1.528-.065-.791-.054-.4-.042c-.069-.011-.136-.017-.209-.033a.816.816,0,0,1-.115-.027l-.066-.022a.26.26,0,0,1-.135-.153l0-.039.005-.024,1.931-8.726c.13-.58.258-1.156.384-1.721l.027-.119.121-.018c5.325-.781,10.178-1.579,13.611-3.012l-.078.141c-.332-2.383-.6-4.329-.8-5.722-.082-.649-.148-1.168-.2-1.562a3.025,3.025,0,0,1-.044-.548,2.97,2.97,0,0,1,.119.537q.1.585.267,1.551c.222,1.389.532,3.329.912,5.7l.016.1-.094.041c-3.468,1.5-8.334,2.33-13.665,3.12l.147-.136c-.126.565-.254,1.141-.383,1.722-.693,3.088-1.354,6.033-1.957,8.72l-.145-.038c4.258.193,7.98.272,10.57.274h3.845A1.089,1.089,0,0,1,482.728,244.76Z" transform="translate(-467.853 -223.148)" fill="#263238"/>
            </g>
          </g>
        </g>
        <g id="Group_4106" data-name="Group 4106" transform="translate(55.908 60.881)">
          <g id="Group_4097" data-name="Group 4097">
            <g id="Group_4092" data-name="Group 4092" transform="translate(3.097 4.735)">
              <path id="Path_5142" data-name="Path 5142" d="M477.122,215.872l-5.891,14.294-8.674,1.539-2.328,10.445,5.73.332-.042.382-22.485.641,9.513-27.632Z" transform="translate(-443.432 -215.872)" fill="#455a64"/>
            </g>
            <g id="Group_4093" data-name="Group 4093">
              <path id="Path_5143" data-name="Path 5143" d="M448.325,208.92l3.171,4.735-9.513,27.632-3.1-5.3Z" transform="translate(-438.885 -208.92)" fill="#455a64"/>
            </g>
            <g id="Group_4094" data-name="Group 4094" transform="translate(9.44)">
              <path id="Path_5144" data-name="Path 5144" d="M480.093,213.655l-3.473-3.372-23.874-1.363,3.171,4.735Z" transform="translate(-452.746 -208.92)" fill="#ebebeb"/>
            </g>
            <g id="Group_4096" data-name="Group 4096" transform="translate(3.094 4.734)">
              <g id="Group_4095" data-name="Group 4095">
                <path id="Path_5145" data-name="Path 5145" d="M452.944,215.872c.093.032-1.962,6.244-4.589,13.873s-4.832,13.791-4.925,13.759,1.962-6.242,4.589-13.874S452.851,215.841,452.944,215.872Z" transform="translate(-443.428 -215.872)" fill="#263238"/>
              </g>
            </g>
          </g>
          <g id="Group_4105" data-name="Group 4105" transform="translate(0.884 13.915)">
            <g id="Group_4098" data-name="Group 4098">
              <path id="Path_5146" data-name="Path 5146" d="M461.2,236.794l-4.119-.355a21.312,21.312,0,0,0-2.644-3.57c-1.048-.923-6.464-3.515-6.464-3.515a1.5,1.5,0,0,0,0,1.9,23.465,23.465,0,0,0,2.917,1.868h0a1.477,1.477,0,0,1-1.685,1.863c-1.586-.291-3.434-.62-3.678-.62a18.482,18.482,0,0,1-3.018-2.635.987.987,0,0,0-1.664.9.492.492,0,0,0,.139.235s-1.671-.059-.18,2.187c0,0-.344,2.074.879,3.024a9.977,9.977,0,0,0,1.314,3.37c.787.864,8.467,2.506,8.467,2.506l8,.777Z" transform="translate(-440.183 -229.353)" fill="#b78876"/>
            </g>
            <g id="Group_4100" data-name="Group 4100" transform="translate(0.887 3.481)">
              <g id="Group_4099" data-name="Group 4099">
                <path id="Path_5147" data-name="Path 5147" d="M448.93,238.994a4.641,4.641,0,0,1-1.374.033,7.213,7.213,0,0,1-3.23-.849,6.7,6.7,0,0,1-2.249-2.469,4.554,4.554,0,0,1-.586-1.244,6.343,6.343,0,0,1,.8,1.111,7.476,7.476,0,0,0,2.218,2.3,8.191,8.191,0,0,0,3.072.9A6.189,6.189,0,0,1,448.93,238.994Z" transform="translate(-441.485 -234.464)" fill="#aa6550"/>
              </g>
            </g>
            <g id="Group_4102" data-name="Group 4102" transform="translate(0.608 5.755)">
              <g id="Group_4101" data-name="Group 4101">
                <path id="Path_5148" data-name="Path 5148" d="M448.008,241.839a2.581,2.581,0,0,1-1.255.1,8.881,8.881,0,0,1-1.355-.2,4.252,4.252,0,0,1-1.583-.646,7.322,7.322,0,0,1-1.177-1.21l-.844-1.052a4.421,4.421,0,0,1-.714-1.026,4.408,4.408,0,0,1,.9.863c.261.28.572.621.9,1a8.375,8.375,0,0,0,1.141,1.137,4.317,4.317,0,0,0,1.449.612,12.616,12.616,0,0,0,1.3.265C447.531,241.805,448,241.789,448.008,241.839Z" transform="translate(-441.076 -237.804)" fill="#aa6550"/>
              </g>
            </g>
            <g id="Group_4104" data-name="Group 4104" transform="translate(1.487 8.726)">
              <g id="Group_4103" data-name="Group 4103">
                <path id="Path_5149" data-name="Path 5149" d="M447.34,245.209a9.716,9.716,0,0,1-3.019-.6,1.4,1.4,0,0,1-.595-.36,4.778,4.778,0,0,1-.417-.425,5.8,5.8,0,0,1-.594-.8c-.3-.488-.381-.84-.338-.855s.208.283.544.713a8.819,8.819,0,0,0,.628.723c.124.129.26.261.405.385a1.133,1.133,0,0,0,.453.278c.83.223,1.555.456,2.086.627A3.792,3.792,0,0,1,447.34,245.209Z" transform="translate(-442.366 -242.166)" fill="#aa6550"/>
              </g>
            </g>
          </g>
        </g>
      </g>
    </g>
  </g>
</svg>
