<svg height="512" viewBox="0 0 58 58" width="512" xmlns="http://www.w3.org/2000/svg"><g id="Page-1" fill="none" fill-rule="evenodd"><g id="009---Moisture-Wicking-Fabric" fill-rule="nonzero"><path id="Shape" d="m10 53c0 2.7614237-2.23857625 5-5 5s-5-2.2385763-5-5c0-5 5-9 5-9s5 4 5 9z" fill="#67b9cc"/><path id="Shape" d="m14.592.43-5.9 6.741c-.12935302.14802718-.15996353.35811563-.07822779.53689908.08173573.17878344.26064883.29308244.45722779.29210092h1.81c.2879646-.00013996.5620123.12386526.7519906.34027199.1899783.21640672.2774448.50420706.2400094.78972801-.3653484 3.2734461-1.7769124 6.3417128-4.025 8.749-3.948 3.944-4.703 10.442-4.848 13.061-.0165573.2754504.08144377.5454995.27080463.746222.18936085.2007226.45324826.3142752.72919537.313778h4.009c.52544981.0054718.9640078-.3997558 1-.924.159-2.361.884-6.759 3.085-8.96 3.4073076-3.5969946 5.467183-8.2607701 5.831-13.202.0447487-.51844756.4796284-.91592761 1-.914h1.946c.1960356-.00019946.3738696-.11494018.4548436-.29347079.0809741-.17853062.050148-.38791093-.0788436-.53552921l-5.9-6.741c-.0949652-.10934272-.2326752-.1721376-.3775-.1721376s-.2825348.06279488-.3775.1721376z" fill="#f29c1f"/><g fill="#b49aca"><path id="Shape" d="m2 42c-.34644011-.000185-.66810366-.1796678-.85019453-.4743943-.18209086-.2947265-.19866427-.6627032-.04380547-.9726057l3-6c.2468713-.4942948.84770514-.6948712 1.34199998-.448.49429484.2468713.69487127.8477052.44800002 1.342l-3 6c-.16958536.3393743-.5166139.553556-.896.553z"/><path id="Shape" d="m7 42c-.34644011-.000185-.66810366-.1796678-.85019453-.4743943-.18209086-.2947265-.19866427-.6627032-.04380547-.9726057l3-6c.2468713-.4942948.84770514-.6948712 1.342-.448.4942948.2468713.6948713.8477052.448 1.342l-3 6c-.16958536.3393743-.5166139.553556-.896.553z"/><path id="Shape" d="m12 42c-.3464401-.000185-.6681037-.1796678-.8501945-.4743943-.1820909-.2947265-.1986643-.6627032-.0438055-.9726057l3-6c.2468713-.4942948.8477051-.6948712 1.342-.4479999.4942948.2468712.6948712.8477051.448 1.3419999l-3 6c-.1695854.3393743-.5166139.553556-.896.553z"/><path id="Shape" d="m17 42c-.3464401-.000185-.6681037-.1796678-.8501945-.4743943-.1820909-.2947265-.1986643-.6627032-.0438055-.9726057l3-6c.2468713-.4942948.8477051-.6948712 1.342-.448.4942948.2468713.6948713.8477052.448 1.342l-3 6c-.1695854.3393743-.5166139.553556-.896.553z"/><path id="Shape" d="m22 42c-.3464401-.000185-.6681037-.1796678-.8501945-.4743943-.1820909-.2947265-.1986643-.6627032-.0438055-.9726057l3-6c.2468713-.4942948.8477051-.6948712 1.342-.448.4942948.2468713.6948713.8477052.448 1.342l-3 6c-.1695854.3393743-.5166139.553556-.896.553z"/><path id="Shape" d="m27 42c-.3464401-.000185-.6681037-.1796678-.8501945-.4743943-.1820909-.2947265-.1986643-.6627032-.0438055-.9726057l3-6c.2468713-.4942948.8477051-.6948712 1.342-.448.4942948.2468713.6948713.8477052.448 1.342l-3 6c-.1695854.3393743-.5166139.553556-.896.553z"/><path id="Shape" d="m32 42c-.3464401-.000185-.6681037-.1796678-.8501945-.4743943-.1820909-.2947265-.1986643-.6627032-.0438055-.9726057l3-6c.2468713-.4942948.8477051-.6948712 1.342-.448.4942948.2468713.6948713.8477052.448 1.342l-3 6c-.1695854.3393743-.5166139.553556-.896.553z"/><path id="Shape" d="m37 42c-.3464401-.000185-.6681037-.1796678-.8501945-.4743943-.1820909-.2947265-.1986643-.6627032-.0438055-.9726057l3-6c.2468713-.4942948.8477051-.6948712 1.342-.448.4942948.2468713.6948713.8477052.448 1.342l-3 6c-.1695854.3393743-.5166139.553556-.896.553z"/><path id="Shape" d="m42 42c-.3464401-.000185-.6681037-.1796678-.8501945-.4743943-.1820909-.2947265-.1986643-.6627032-.0438055-.9726057l3-6c.2468713-.4942948.8477051-.6948712 1.342-.448.4942948.2468713.6948713.8477052.448 1.342l-3 6c-.1695854.3393743-.5166139.553556-.896.553z"/><path id="Shape" d="m47 42c-.3464401-.000185-.6681037-.1796678-.8501945-.4743943-.1820909-.2947265-.1986643-.6627032-.0438055-.9726057l3-6c.2468713-.4942948.8477051-.6948712 1.342-.448.4942948.2468713.6948713.8477052.448 1.342l-3 6c-.1695854.3393743-.5166139.553556-.896.553z"/><path id="Shape" d="m52 42c-.3464401-.000185-.6681037-.1796678-.8501945-.4743943-.1820909-.2947265-.1986643-.6627032-.0438055-.9726057l3-6c.2468713-.4942948.8477051-.6948712 1.342-.448.4942948.2468713.6948713.8477052.448 1.342l-3 6c-.1695854.3393743-.5166139.553556-.896.553z"/></g><path id="Shape" d="m20.87 8h-1.95c-.5166105-.0007264-.9472968.39515697-.99.91-.3674769 4.944436-2.4302944 9.6105009-5.84 13.21-2.2 2.2-2.93 6.6-3.08 8.96-.03557796.5238299-.47502616.9281222-1 .92h-2.19c-.06338258-3.5488442.84246258-7.0477576 2.62-10.12 1.32-2.25 3.07-4.2 4.51-6.37 1.569208-2.1054723 2.4304713-4.6542515 2.46-7.28-.0886743-2.14575767-1.2396772-4.10658667-3.07-5.23l2.25-2.57c.0938506-.10944219.2308282-.17242419.375-.17242419s.2811494.062982.375.17242419l5.9 6.74c.1289507.14675739.1606165.35517644.0810734.53361103s-.2557244.29419889-.4510734.29638897z" fill="#e57e25"/><path id="Shape" d="m32.592.43-5.9 6.741c-.129353.14802718-.1599635.35811563-.0782278.53689908.0817357.17878344.2606488.29308244.4572278.29210092h1.81c.2879646-.00013996.5620123.12386526.7519906.34027199.1899783.21640672.2774448.50420706.2400094.78972801-.3653484 3.2734461-1.7769124 6.3417128-4.025 8.749-3.948 3.944-4.703 10.442-4.848 13.061-.0165573.2754504.0814438.5454995.2708046.746222.1893609.2007226.4532483.3142752.7291954.313778h4.009c.5254498.0054718.9640078-.3997558 1-.924.159-2.361.884-6.759 3.085-8.96 3.4073076-3.5969946 5.467183-8.2607701 5.831-13.202.0447487-.51844756.4796284-.91592761 1-.914h1.946c.1960356-.00019946.3738696-.11494018.4548436-.29347079.0809741-.17853062.050148-.38791093-.0788436-.53552921l-5.9-6.741c-.0949652-.10934272-.2326752-.1721376-.3775-.1721376s-.2825348.06279488-.3775.1721376z" fill="#f29c1f"/><path id="Shape" d="m38.87 8h-1.95c-.5166105-.0007264-.9472968.39515697-.99.91-.3674769 4.944436-2.4302944 9.6105009-5.84 13.21-2.2 2.2-2.93 6.6-3.08 8.96-.035578.5238299-.4750262.9281222-1 .92h-2.19c-.0633826-3.5488442.8424626-7.0477576 2.62-10.12 1.32-2.25 3.07-4.2 4.51-6.37 1.569208-2.1054723 2.4304713-4.6542515 2.46-7.28-.0886743-2.14575767-1.2396772-4.10658667-3.07-5.23l2.25-2.57c.0938506-.10944219.2308282-.17242419.375-.17242419s.2811494.062982.375.17242419l5.9 6.74c.1289507.14675739.1606165.35517644.0810734.53361103s-.2557244.29419889-.4510734.29638897z" fill="#e57e25"/><path id="Shape" d="m50.592.43-5.9 6.741c-.129353.14802718-.1599635.35811563-.0782278.53689908.0817357.17878344.2606488.29308244.4572278.29210092h1.81c.2879646-.00013996.5620123.12386526.7519906.34027199.1899783.21640672.2774448.50420706.2400094.78972801-.3653484 3.2734461-1.7769124 6.3417128-4.025 8.749-3.948 3.944-4.703 10.442-4.848 13.061-.0165573.2754504.0814438.5454995.2708046.746222.1893609.2007226.4532483.3142752.7291954.313778h4.009c.5254498.0054718.9640078-.3997558 1-.924.159-2.361.884-6.759 3.085-8.96 3.4073076-3.5969946 5.467183-8.2607701 5.831-13.202.0447487-.51844756.4796284-.91592761 1-.914h1.946c.1960356-.00019946.3738696-.11494018.4548436-.29347079.0809741-.17853062.050148-.38791093-.0788436-.53552921l-5.9-6.741c-.0949652-.10934272-.2326752-.1721376-.3775-.1721376s-.2825348.06279488-.3775.1721376z" fill="#f29c1f"/><path id="Shape" d="m56.87 8h-1.95c-.5166105-.0007264-.9472968.39515697-.99.91-.3674769 4.944436-2.4302944 9.6105009-5.84 13.21-2.2 2.2-2.93 6.6-3.08 8.96-.035578.5238299-.4750262.9281222-1 .92h-2.19c-.0633826-3.5488442.8424626-7.0477576 2.62-10.12 1.32-2.25 3.07-4.2 4.51-6.37 1.569208-2.1054723 2.4304713-4.6542515 2.46-7.28-.0886743-2.14575767-1.2396772-4.10658667-3.07-5.23l2.25-2.57c.0938506-.10944219.2308282-.17242419.375-.17242419s.2811494.062982.375.17242419l5.9 6.74c.1289507.14675739.1606165.35517644.0810734.53361103s-.2557244.29419889-.4510734.29638897z" fill="#e57e25"/><rect id="Rectangle-path" fill="#894b9d" height="4" rx="2" width="58" y="32"/><ellipse id="Oval" cx="2.188" cy="50.611" fill="#b0d3f0" rx="1.638" ry="1.15" transform="matrix(.254 -.967 .967 .254 -47.315 39.859)"/><path id="Shape" d="m10 53c-.0011017 2.4054478-1.71486772 4.4691851-4.07917114 4.9121861-2.36430342.4430009-4.70895495-.8603082-5.58082886-3.1021861 1.08927301.2397973 2.21655952.2500144 3.31.03 1.67161644-.3880486 2.96201215-1.7175472 3.3-3.4.11273562-1.2571023-.12615503-2.5207992-.69-3.65-.48899163-1.1666646-1.07435024-2.2905532-1.75-3.36.3-.28.49-.43.49-.43s5 4 5 9z" fill="#2fa8cc"/><path id="Shape" d="m26 53c0 2.7614237-2.2385763 5-5 5s-5-2.2385763-5-5c0-5 5-9 5-9s5 4 5 9z" fill="#67b9cc"/><ellipse id="Oval" cx="18.188" cy="50.61" fill="#b0d3f0" rx="1.638" ry="1.15" transform="matrix(.254 -.967 .967 .254 -35.384 55.332)"/><path id="Shape" d="m26 53c-.0011017 2.4054478-1.7148677 4.4691851-4.0791711 4.9121861-2.3643035.4430009-4.708955-.8603082-5.5808289-3.1021861 1.089273.2397973 2.2165595.2500144 3.31.03 1.6716164-.3880486 2.9620122-1.7175472 3.3-3.4.1127356-1.2571023-.126155-2.5207992-.69-3.65-.4889916-1.1666646-1.0743502-2.2905532-1.75-3.36.3-.28.49-.43.49-.43s5 4 5 9z" fill="#2fa8cc"/><path id="Shape" d="m42 53c-.0000001 2.7614237-2.2385763 4.9999999-5 4.9999999s-4.9999999-2.2385762-5-4.9999999c0-5 5-9 5-9s5 4 5 9z" fill="#67b9cc"/><ellipse id="Oval" cx="34.188" cy="50.611" fill="#b0d3f0" rx="1.638" ry="1.15" transform="matrix(.254 -.967 .967 .254 -23.453 70.807)"/><path id="Shape" d="m42 53c-.0011017 2.4054478-1.7148677 4.4691851-4.0791711 4.9121861-2.3643035.4430009-4.708955-.8603082-5.5808289-3.1021861 1.089273.2397973 2.2165595.2500144 3.31.03 1.6716164-.3880486 2.9620122-1.7175472 3.3-3.4.1127356-1.2571023-.126155-2.5207992-.69-3.65-.4889916-1.1666646-1.0743502-2.2905532-1.75-3.36.3-.28.49-.43.49-.43s5 4 5 9z" fill="#2fa8cc"/><path id="Shape" d="m58 53c0 2.7614237-2.2385763 5-5 5s-5-2.2385763-5-5c0-5 5-9 5-9s5 4 5 9z" fill="#67b9cc"/><ellipse id="Oval" cx="50.187" cy="50.611" fill="#b0d3f0" rx="1.638" ry="1.15" transform="matrix(.254 -.967 .967 .254 -11.522 86.28)"/><path id="Shape" d="m58 53c-.0011017 2.4054478-1.7148677 4.4691851-4.0791711 4.9121861-2.3643035.4430009-4.708955-.8603082-5.5808289-3.1021861 1.089273.2397973 2.2165595.2500144 3.31.03 1.6716164-.3880486 2.9620122-1.7175472 3.3-3.4.1127356-1.2571023-.126155-2.5207992-.69-3.65-.4889916-1.1666646-1.0743502-2.2905532-1.75-3.36.3-.28.49-.43.49-.43s5 4 5 9z" fill="#2fa8cc"/></g></g></svg>