<svg id="Capa_1" enable-background="new 0 0 512 512" height="512" viewBox="0 0 512 512" width="512" xmlns="http://www.w3.org/2000/svg"><g><g><g><g><g><g><path d="m118.581 100.268c-4.971-4.895-13.66-1.756-13.979 5.069-2.026 43.288 2.708 156.239 99.655 210.804 57.445 32.332 55.963-2.209 55.963-2.209l-3.324-77.463z" fill="#c6e873"/></g><g><path d="m229.259 294.385c-1.847 0-3.699-.658-5.177-1.994-1.891-1.709-46.638-42.449-72.84-93.052-1.962-3.789-.481-8.452 3.309-10.413 3.787-1.961 8.451-.481 10.413 3.309 24.885 48.06 69.036 88.293 69.479 88.693 3.164 2.862 3.41 7.747.549 10.912-1.525 1.687-3.626 2.545-5.733 2.545z" fill="#b5e245"/></g></g><g><g><path d="m393.419 100.268c4.971-4.895 13.66-1.756 13.979 5.069 2.026 43.288-2.708 156.239-99.655 210.804-57.445 32.332-55.963-2.209-55.963-2.209l3.324-77.463z" fill="#c6e873"/></g><g><path d="m282.74 294.385c-2.109 0-4.209-.858-5.734-2.546-2.861-3.166-2.614-8.05.551-10.911.443-.4 44.594-40.633 69.479-88.693 1.963-3.792 6.626-5.272 10.413-3.309 3.79 1.962 5.271 6.625 3.309 10.413-26.202 50.604-70.949 91.343-72.84 93.052-1.477 1.336-3.33 1.994-5.178 1.994z" fill="#b5e245"/></g></g></g><g><g><g><path d="m262.864 4.409c-2.531-5.878-11.197-5.878-13.728 0-14.631 33.98-47.565 118.075-47.565 186.601 0 88.095 54.429 142.247 54.429 142.247s54.429-54.153 54.429-142.247c0-68.526-32.933-152.621-47.565-186.601z" fill="#b5e245"/></g><g><path d="m256 304.177c-4.268 0-7.726-3.459-7.726-7.726v-159.964c0-4.268 3.459-7.726 7.726-7.726 4.268 0 7.726 3.459 7.726 7.726v159.964c0 4.267-3.458 7.726-7.726 7.726z" fill="#a8d340"/></g></g></g></g><g><path d="m283.975 512c11.469 0 21.425-7.902 24.029-19.071l40.618-174.18h-247.221l40.618 174.18c2.604 11.169 12.561 19.071 24.029 19.071z" fill="#eaaa89"/><path d="m342.956 318.749-40.618 174.18c-2.604 11.169-12.561 19.071-24.029 19.071h67.643c11.468 0 21.425-7.902 24.029-19.071l40.618-174.18z" fill="#e4936b"/><path d="m376.264 316.541c0-12.202-9.891-22.094-22.093-22.094h-260.173c-12.202 0-22.094 9.892-22.094 22.094 0 12.202 9.892 22.094 22.094 22.094h260.172c12.202 0 22.094-9.892 22.094-22.094z" fill="#e4936b"/><path d="m418.003 294.446h-67.954c12.202 0 22.094 9.892 22.094 22.094 0 12.202-9.892 22.094-22.094 22.094h67.954c12.202 0 22.094-9.892 22.094-22.094 0-12.202-9.892-22.094-22.094-22.094z" fill="#e27d47"/></g></g></g></svg>