<svg height="512" viewBox="0 0 512 512" width="512" xmlns="http://www.w3.org/2000/svg"><g><g fill="#57a4ff"><circle cx="256" cy="416" r="40"/><circle cx="256" cy="416" r="40"/></g><g fill="#ffffff"><path d="m304 342.24v-286.24a48 48 0 0 0 -96 0v286.24a88.428 88.428 0 0 0 -40 73.26c-.27 47.66 38.26 87.35 85.87 88.48.72.01 1.44.02 2.15.02a88 88 0 0 0 87.98-88 88.328 88.328 0 0 0 -40-73.76zm2.3 125.27a71.406 71.406 0 0 1 -52.05 20.47c-38.95-.92-70.47-33.4-70.25-72.39a72.329 72.329 0 0 1 36.01-61.96 7.975 7.975 0 0 0 3.99-6.92v-290.71a32 32 0 0 1 64 0v24h-8a8 8 0 0 0 0 16h8v16h-8a8 8 0 0 0 0 16h8v16h-8a8 8 0 0 0 0 16h8v16h-8a8 8 0 0 0 0 16h8v16h-8a8 8 0 0 0 0 16h8v16h-8a8 8 0 0 0 0 16h8v16h-8a8 8 0 0 0 0 16h8v16h-8a8 8 0 0 0 0 16h8v26.71a7.975 7.975 0 0 0 3.99 6.92 72.288 72.288 0 0 1 36.01 62.37 71.452 71.452 0 0 1 -21.7 51.51z"/><path d="m264 368.68v-312.68a8 8 0 0 0 -16 0v312.68a48 48 0 1 0 16 0zm-8 79.32a32 32 0 1 1 32-32 32.042 32.042 0 0 1 -32 32z"/></g></g></svg>